<svg width="14" height="19" viewBox="0 0 14 19" fill="none" xmlns="http://www.w3.org/2000/svg">
<path d="M12.0625 7.5C12.0625 4.72266 9.77734 2.4375 7 2.4375C4.1875 2.4375 1.9375 4.72266 1.9375 7.5C1.9375 7.95703 2.07812 8.625 2.46484 9.53906C2.81641 10.3828 3.34375 11.3672 3.94141 12.3516C4.96094 13.9688 6.12109 15.5156 7 16.6406C7.84375 15.5156 9.00391 13.9688 10.0234 12.3516C10.6211 11.3672 11.1484 10.3828 11.5 9.53906C11.8867 8.625 12.0625 7.95703 12.0625 7.5ZM13.75 7.5C13.75 10.5938 9.63672 16.043 7.80859 18.3281C7.38672 18.8555 6.57812 18.8555 6.15625 18.3281C4.36328 16.043 0.25 10.5938 0.25 7.5C0.25 3.77344 3.27344 0.75 7 0.75C10.7266 0.75 13.75 3.77344 13.75 7.5ZM8.125 7.5C8.125 6.90234 7.59766 6.375 7 6.375C6.36719 6.375 5.875 6.90234 5.875 7.5C5.875 8.13281 6.36719 8.625 7 8.625C7.59766 8.625 8.125 8.13281 8.125 7.5ZM4.1875 7.5C4.1875 6.51562 4.71484 5.60156 5.59375 5.07422C6.4375 4.58203 7.52734 4.58203 8.40625 5.07422C9.25 5.60156 9.8125 6.51562 9.8125 7.5C9.8125 8.51953 9.25 9.43359 8.40625 9.96094C7.52734 10.4531 6.4375 10.4531 5.59375 9.96094C4.71484 9.43359 4.1875 8.51953 4.1875 7.5Z" fill="white"/>
</svg>
