<svg width="18" height="14" viewBox="0 0 18 14" fill="none" xmlns="http://www.w3.org/2000/svg">
<path d="M2.25 1.6875C1.93359 1.6875 1.6875 1.96875 1.6875 2.25V3.05859L7.73438 8.01562C8.47266 8.61328 9.49219 8.61328 10.2305 8.01562L16.3125 3.05859V2.25C16.3125 1.96875 16.0312 1.6875 15.75 1.6875H2.25ZM1.6875 5.23828V11.25C1.6875 11.5664 1.93359 11.8125 2.25 11.8125H15.75C16.0312 11.8125 16.3125 11.5664 16.3125 11.25V5.23828L11.3203 9.31641C9.94922 10.4414 8.01562 10.4414 6.67969 9.31641L1.6875 5.23828ZM0 2.25C0 1.01953 0.984375 0 2.25 0H15.75C16.9805 0 18 1.01953 18 2.25V11.25C18 12.5156 16.9805 13.5 15.75 13.5H2.25C0.984375 13.5 0 12.5156 0 11.25V2.25Z" fill="white"/>
</svg>
