<svg width="18" height="17" viewBox="0 0 18 17" fill="none" xmlns="http://www.w3.org/2000/svg">
<path d="M0 5.9375V4.74219C0 4.42578 0.105469 4.14453 0.316406 3.96875C1.33594 3.125 4.39453 0.875 9 0.875C13.5703 0.875 16.6289 3.125 17.6484 3.96875C17.8594 4.14453 18 4.42578 18 4.74219V5.9375C18 6.57031 17.4727 7.0625 16.875 7.0625H15.3633C14.9062 7.0625 14.4844 6.78125 14.3438 6.35938L13.6406 4.67188C13.5352 4.39062 13.3594 4.21484 13.0781 4.10938C12.4453 3.86328 11.0039 3.40625 9 3.40625C6.96094 3.40625 5.51953 3.86328 4.88672 4.10938C4.64062 4.21484 4.42969 4.39062 4.32422 4.67188L3.65625 6.35938C3.48047 6.78125 3.05859 7.0625 2.60156 7.0625H1.125C0.492188 7.0625 0 6.57031 0 5.9375ZM2.8125 13.8477V14.9375H15.1875V13.8477C15.1875 13.7773 15.1523 13.6719 15.082 13.6016L11.5312 7.37891C11.4609 7.20312 11.25 7.0625 11.0391 7.0625H6.92578C6.71484 7.0625 6.53906 7.20312 6.43359 7.37891L2.88281 13.6016C2.8125 13.6719 2.8125 13.7773 2.8125 13.8477ZM4.95703 6.53516C5.37891 5.83203 6.11719 5.375 6.92578 5.375H11.0391C11.8477 5.375 12.6211 5.83203 13.0078 6.53516L16.5586 12.7578C16.7695 13.0742 16.8398 13.4609 16.8398 13.8477V14.9375C16.8398 15.8867 16.1016 16.625 15.1523 16.625H2.8125C1.86328 16.625 1.125 15.8867 1.125 14.9375V13.8477C1.125 13.4609 1.19531 13.0742 1.40625 12.7578L4.95703 6.53516ZM9 8.75C9.77344 8.75 10.5117 9.20703 10.9336 9.875C11.3203 10.5781 11.3203 11.457 10.9336 12.125C10.5117 12.8281 9.77344 13.25 9 13.25C8.19141 13.25 7.45312 12.8281 7.03125 12.125C6.64453 11.457 6.64453 10.5781 7.03125 9.875C7.45312 9.20703 8.19141 8.75 9 8.75Z" fill="white"/>
</svg>
