<svg width="25" height="24" viewBox="0 0 25 24" fill="none" xmlns="http://www.w3.org/2000/svg">
<path d="M23.0545 10.3955C22.9586 7.66134 21.8513 5.10456 19.9071 3.16034C17.8693 1.12212 15.1609 0 12.2814 0C6.46559 0 1.71353 4.62908 1.50869 10.3955C0.621179 10.79 0 11.6782 0 12.7107V15.5549C0 16.9516 1.13622 18.0882 2.53328 18.0882C3.43724 18.0882 4.1724 17.3531 4.1724 16.4491V11.8161C4.1724 10.9674 3.52145 10.2753 2.69387 10.1931C2.99936 5.16918 7.18155 1.17499 12.2814 1.17499C14.8476 1.17499 17.2606 2.1753 19.0768 3.99145C20.7445 5.65915 21.7205 7.83289 21.8674 10.1934C21.0406 10.2765 20.3908 10.9682 20.3908 11.8161V16.4487C20.3908 17.3045 21.0519 18.0009 21.8893 18.0733V19.244C21.8893 20.5624 20.8166 21.6347 19.4982 21.6347H17.7275C17.6405 21.3864 17.5042 21.1569 17.3131 20.9666C16.9782 20.6301 16.5317 20.4449 16.0563 20.4449H14.2311C13.9691 20.4449 13.7176 20.5005 13.4873 20.6078C12.8591 20.8965 12.4534 21.5302 12.4534 22.2222C12.4534 22.6977 12.6386 23.1442 12.9743 23.4783C13.3099 23.8147 13.7564 24 14.2311 24H16.0563C16.813 24 17.48 23.5108 17.7287 22.8097H19.4982C21.4648 22.8097 23.0643 21.2102 23.0643 19.244V17.8642C23.9463 17.4674 24.5628 16.5823 24.5628 15.5542V12.7099C24.5628 11.6782 23.9416 10.79 23.0545 10.3955ZM2.99701 11.8161V16.4487C2.99701 16.7045 2.78904 16.9128 2.53289 16.9128C1.78403 16.9128 1.1746 16.3034 1.1746 15.5545V12.7103C1.1746 11.961 1.78403 11.352 2.53289 11.352C2.78904 11.352 2.99701 11.5604 2.99701 11.8161ZM16.6457 22.3484C16.5874 22.6249 16.339 22.8258 16.0559 22.8258H14.2307C14.0701 22.8258 13.9193 22.7631 13.8042 22.648C13.6906 22.5348 13.6279 22.3836 13.6279 22.223C13.6279 21.9884 13.7654 21.7742 13.9808 21.6751C14.0576 21.639 14.1418 21.6206 14.2307 21.6206H16.0559C16.2165 21.6206 16.3672 21.6829 16.482 21.7981C16.5956 21.9113 16.6583 22.0624 16.6583 22.223C16.6586 22.2661 16.6539 22.3092 16.6457 22.3484ZM23.3878 15.5545C23.3878 16.3034 22.7784 16.9128 22.0295 16.9128C21.7738 16.9128 21.5654 16.7049 21.5654 16.4487V11.8161C21.5654 11.5604 21.7734 11.352 22.0295 11.352C22.7784 11.352 23.3878 11.9614 23.3878 12.7103V15.5545Z" fill="#F4E11B"/>
<path d="M16.0857 15.7573C17.4585 15.7573 18.5751 14.6403 18.5751 13.2679V8.19547C18.5751 7.53199 18.3158 6.9069 17.845 6.43612C17.3743 5.96534 16.7495 5.70605 16.0857 5.70605H8.47721C7.10443 5.70605 5.98779 6.82269 5.98779 8.19547V13.2679C5.98779 14.6407 7.10443 15.7573 8.47721 15.7573H8.52382V17.0718C8.52382 17.5731 8.82266 18.018 9.28482 18.2056C9.43405 18.2655 9.58914 18.2953 9.74268 18.2953C10.0627 18.2953 10.3744 18.1684 10.6028 17.9322L12.7894 15.7573H16.0857ZM12.1334 14.7531L9.76696 17.1066C9.75638 17.1176 9.74855 17.1258 9.72623 17.116C9.6992 17.105 9.6992 17.0874 9.6992 17.0718V15.1698C9.6992 14.8455 9.4364 14.5823 9.11171 14.5823H8.4776C7.75263 14.5823 7.16318 13.9925 7.16318 13.2679V8.19547C7.16318 7.4705 7.75263 6.88105 8.4776 6.88105H16.0861C16.4362 6.88105 16.7656 7.01813 17.0147 7.26684C17.2638 7.51593 17.4005 7.84572 17.4005 8.19547V13.2679C17.4005 13.9929 16.8106 14.5823 16.0861 14.5823H12.5478C12.3923 14.5823 12.2435 14.6438 12.1334 14.7531Z" fill="#F4E11B"/>
<path d="M9.42736 9.95874C8.94953 9.95874 8.56061 10.3481 8.56061 10.8255C8.56061 11.3029 8.94992 11.6922 9.42736 11.6922C9.90558 11.6922 10.2949 11.3029 10.2949 10.8255C10.2949 10.3481 9.90597 9.95874 9.42736 9.95874Z" fill="#F4E11B"/>
<path d="M12.281 9.95874C11.8032 9.95874 11.4142 10.3481 11.4142 10.8255C11.4142 11.3029 11.8036 11.6922 12.281 11.6922C12.7596 11.6922 13.1485 11.3029 13.1485 10.8255C13.1485 10.3481 12.7596 9.95874 12.281 9.95874Z" fill="#F4E11B"/>
<path d="M15.1346 9.95874C14.6568 9.95874 14.2679 10.3481 14.2679 10.8255C14.2679 11.3029 14.6572 11.6922 15.1346 11.6922C15.6129 11.6922 16.0022 11.3029 16.0022 10.8255C16.0022 10.3481 15.6129 9.95874 15.1346 9.95874Z" fill="#F4E11B"/>
</svg>
