<svg width="45" height="24" viewBox="0 0 45 24" fill="none" xmlns="http://www.w3.org/2000/svg">
<path d="M38.1487 23.9999C37.3974 24.0005 36.6628 23.7782 36.0379 23.3612C35.4129 22.9442 34.9257 22.3512 34.6378 21.6573C34.3499 20.9633 34.2743 20.1995 34.4205 19.4626C34.5668 18.7257 34.9283 18.0487 35.4594 17.5172C35.9904 16.9858 36.6672 16.6238 37.404 16.477C38.1408 16.3302 38.9046 16.4053 39.5988 16.6927C40.2929 16.98 40.8863 17.4668 41.3037 18.0915C41.7212 18.7161 41.944 19.4506 41.944 20.2019C41.9435 21.2086 41.5436 22.1739 40.832 22.886C40.1205 23.5981 39.1554 23.9987 38.1487 23.9999ZM38.1487 17.7893C37.6715 17.7887 37.2047 17.9298 36.8076 18.1945C36.4105 18.4593 36.1009 18.8359 35.9178 19.2767C35.7348 19.7175 35.6866 20.2027 35.7794 20.6708C35.8722 21.139 36.1017 21.5692 36.439 21.9068C36.7763 22.2445 37.2062 22.4746 37.6743 22.5679C38.1423 22.6612 38.6276 22.6136 39.0686 22.4311C39.5096 22.2486 39.8865 21.9393 40.1518 21.5425C40.417 21.1457 40.5585 20.6792 40.5585 20.2019C40.5583 19.5626 40.3044 18.9495 39.8526 18.4972C39.4008 18.0449 38.788 17.7903 38.1487 17.7893Z" fill="#F4E11B"/>
<path d="M18.1341 23.9999C17.3828 24.0007 16.6481 23.7785 16.023 23.3616C15.3979 22.9447 14.9105 22.3518 14.6225 21.6579C14.3345 20.9639 14.2587 20.2002 14.4049 19.4632C14.551 18.7262 14.9124 18.0491 15.4435 17.5175C15.9745 16.986 16.6512 16.6239 17.3881 16.4771C18.1249 16.3302 18.8888 16.4052 19.583 16.6926C20.2772 16.9799 20.8706 17.4667 21.2881 18.0914C21.7056 18.7161 21.9285 19.4505 21.9285 20.2019C21.9277 21.2083 21.5279 22.1734 20.8165 22.8854C20.1052 23.5974 19.1405 23.9982 18.1341 23.9999ZM18.1341 17.7893C17.6568 17.7886 17.19 17.9294 16.7927 18.1941C16.3955 18.4587 16.0857 18.8353 15.9025 19.2761C15.7194 19.7168 15.6711 20.202 15.7637 20.6703C15.8564 21.1385 16.0859 21.5687 16.4231 21.9065C16.7604 22.2443 17.1903 22.4744 17.6584 22.5678C18.1265 22.6612 18.6117 22.6137 19.0528 22.4312C19.4939 22.2487 19.8709 21.9394 20.1361 21.5426C20.4014 21.1458 20.543 20.6792 20.543 20.2019C20.5425 19.5628 20.2887 18.95 19.8371 18.4978C19.3856 18.0455 18.7732 17.7908 18.1341 17.7893Z" fill="#F4E11B"/>
<path d="M43.1457 20.8941H41.2513C41.0676 20.8941 40.8914 20.8211 40.7615 20.6912C40.6315 20.5613 40.5586 20.3851 40.5586 20.2014C40.5586 20.0176 40.6315 19.8414 40.7615 19.7115C40.8914 19.5816 41.0676 19.5086 41.2513 19.5086H42.9499V15.8352C42.9495 15.3386 42.8223 14.8503 42.5804 14.4165L38.8304 7.69324C38.7984 7.63586 38.7516 7.58806 38.6949 7.55478C38.6383 7.5215 38.5738 7.50393 38.508 7.50389H33.3975V19.5114H35.0471C35.2308 19.5114 35.407 19.5844 35.537 19.7143C35.6669 19.8442 35.7399 20.0204 35.7399 20.2041C35.7399 20.3879 35.6669 20.5641 35.537 20.694C35.407 20.8239 35.2308 20.8969 35.0471 20.8969H32.7047C32.521 20.8969 32.3448 20.8239 32.2149 20.694C32.085 20.5641 32.012 20.3879 32.012 20.2041V6.81115C32.012 6.62742 32.085 6.45122 32.2149 6.32131C32.3448 6.19139 32.521 6.11841 32.7047 6.11841H38.508C38.8206 6.11826 39.1275 6.20156 39.397 6.35972C39.6666 6.51788 39.889 6.74515 40.0413 7.01805L43.7904 13.7422C44.1469 14.3823 44.3341 15.1027 44.3345 15.8352V19.7054C44.334 20.0205 44.2086 20.3226 43.9857 20.5454C43.7629 20.7682 43.4608 20.8936 43.1457 20.8941Z" fill="#F4E11B"/>
<path d="M15.0315 20.8945H8.38955C8.20582 20.8945 8.02962 20.8215 7.89971 20.6916C7.76979 20.5617 7.69681 20.3855 7.69681 20.2018V14.8741C7.69681 14.6904 7.76979 14.5142 7.89971 14.3843C8.02962 14.2544 8.20582 14.1814 8.38955 14.1814C8.57327 14.1814 8.74948 14.2544 8.87939 14.3843C9.0093 14.5142 9.08229 14.6904 9.08229 14.8741V19.509H15.0315C15.2153 19.509 15.3915 19.582 15.5214 19.7119C15.6513 19.8418 15.7243 20.018 15.7243 20.2018C15.7243 20.3855 15.6513 20.5617 15.5214 20.6916C15.3915 20.8215 15.2153 20.8945 15.0315 20.8945Z" fill="#F4E11B"/>
<path d="M8.38955 12.4159C8.20582 12.4159 8.02962 12.3429 7.89971 12.213C7.76979 12.0831 7.69681 11.9069 7.69681 11.7232V7.07165C7.69681 6.88792 7.76979 6.71172 7.89971 6.5818C8.02962 6.45189 8.20582 6.37891 8.38955 6.37891C8.57327 6.37891 8.74948 6.45189 8.87939 6.5818C9.0093 6.71172 9.08229 6.88792 9.08229 7.07165V11.7259C9.08156 11.9092 9.00825 12.0847 8.87841 12.214C8.74858 12.3433 8.5728 12.4159 8.38955 12.4159Z" fill="#F4E11B"/>
<path d="M32.7047 20.894H21.2357C21.052 20.894 20.8758 20.821 20.7459 20.6911C20.616 20.5612 20.543 20.385 20.543 20.2012C20.543 20.0175 20.616 19.8413 20.7459 19.7114C20.8758 19.5815 21.052 19.5085 21.2357 19.5085H32.012V1.38548H9.08229V4.23865C9.08229 4.42237 9.0093 4.59857 8.87939 4.72849C8.74948 4.8584 8.57327 4.93139 8.38955 4.93139C8.20582 4.93139 8.02962 4.8584 7.89971 4.72849C7.76979 4.59857 7.69681 4.42237 7.69681 4.23865V1.25802C7.6973 0.924359 7.83012 0.604522 8.06614 0.368678C8.30216 0.132834 8.62209 0.000244258 8.95575 0H32.1395C32.4729 0.000488641 32.7926 0.133186 33.0285 0.369004C33.2643 0.604822 33.397 0.924519 33.3975 1.25802V20.2012C33.3975 20.385 33.3245 20.5612 33.1946 20.6911C33.0647 20.821 32.8885 20.894 32.7047 20.894Z" fill="#F4E11B"/>
<path d="M11.1282 15.5669H2.33593C2.1522 15.5669 1.976 15.4939 1.84609 15.364C1.71617 15.2341 1.64319 15.0579 1.64319 14.8741C1.64319 14.6904 1.71617 14.5142 1.84609 14.3843C1.976 14.2544 2.1522 14.1814 2.33593 14.1814H11.1282C11.3119 14.1814 11.4881 14.2544 11.618 14.3843C11.7479 14.5142 11.8209 14.6904 11.8209 14.8741C11.8209 15.0579 11.7479 15.2341 11.618 15.364C11.4881 15.4939 11.3119 15.5669 11.1282 15.5669Z" fill="#F4E11B"/>
<path d="M18.1341 12.416H5.8652C5.68147 12.416 5.50527 12.343 5.37535 12.2131C5.24544 12.0832 5.17245 11.907 5.17245 11.7233C5.17245 11.5395 5.24544 11.3633 5.37535 11.2334C5.50527 11.1035 5.68147 11.0305 5.8652 11.0305H18.1341C18.3178 11.0305 18.494 11.1035 18.6239 11.2334C18.7538 11.3633 18.8268 11.5395 18.8268 11.7233C18.8268 11.907 18.7538 12.0832 18.6239 12.2131C18.494 12.343 18.3178 12.416 18.1341 12.416Z" fill="#F4E11B"/>
<path d="M5.48373 8.75853H0.69274C0.509014 8.75853 0.332813 8.68554 0.202899 8.55563C0.0729849 8.42571 0 8.24951 0 8.06579C0 7.88206 0.0729849 7.70586 0.202899 7.57595C0.332813 7.44603 0.509014 7.37305 0.69274 7.37305H5.48373C5.66746 7.37305 5.84366 7.44603 5.97357 7.57595C6.10349 7.70586 6.17647 7.88206 6.17647 8.06579C6.17647 8.24951 6.10349 8.42571 5.97357 8.55563C5.84366 8.68554 5.66746 8.75853 5.48373 8.75853Z" fill="#F4E11B"/>
<path d="M13.1658 4.93138H4.70879C4.52507 4.93138 4.34887 4.85839 4.21895 4.72848C4.08904 4.59857 4.01605 4.42236 4.01605 4.23864C4.01605 4.05491 4.08904 3.87871 4.21895 3.7488C4.34887 3.61888 4.52507 3.5459 4.70879 3.5459H13.1658C13.3495 3.5459 13.5257 3.61888 13.6556 3.7488C13.7855 3.87871 13.8585 4.05491 13.8585 4.23864C13.8585 4.42236 13.7855 4.59857 13.6556 4.72848C13.5257 4.85839 13.3495 4.93138 13.1658 4.93138Z" fill="#F4E11B"/>
</svg>
