<svg width="40" height="24" viewBox="0 0 40 24" fill="none" xmlns="http://www.w3.org/2000/svg">
<path d="M18.1954 7.17454C18.728 7.17454 19.1599 7.60776 19.1599 8.13907C19.1599 8.42107 19.3887 8.64994 19.6707 8.64994C19.9527 8.64994 20.1816 8.42107 20.1816 8.13907C20.1816 7.04376 19.2907 6.1528 18.1954 6.1528H18.0441V5.71277C18.0441 5.43077 17.8153 5.2019 17.5333 5.2019C17.2513 5.2019 17.0224 5.43077 17.0224 5.71277V6.1528H16.8712C15.7759 6.1528 14.8849 7.04376 14.8849 8.13907C14.8849 9.23437 15.7759 10.1253 16.8712 10.1253H17.0224V12.0557H16.8712C16.3385 12.0557 15.9067 11.6239 15.9067 11.0912C15.9067 10.8092 15.6778 10.5803 15.3958 10.5803C15.1138 10.5803 14.8849 10.8092 14.8849 11.0912C14.8849 12.1865 15.7759 13.0775 16.8712 13.0775H17.0224V13.5175C17.0224 13.7995 17.2513 14.0284 17.5333 14.0284C17.8153 14.0284 18.0441 13.7995 18.0441 13.5175V13.0775H18.1954C19.2907 13.0775 20.1816 12.1865 20.1816 11.0912C20.1816 9.99591 19.2907 9.10495 18.1954 9.10495H18.0441V7.17454H18.1954ZM19.1612 11.0912C19.1612 11.6239 18.728 12.0557 18.1967 12.0557H18.0455V10.1253H18.1967C18.728 10.1267 19.1612 10.5585 19.1612 11.0912ZM17.0224 9.10495H16.8712C16.3385 9.10495 15.9067 8.67174 15.9067 8.14043C15.9067 7.60913 16.3399 7.17591 16.8712 7.17591H17.0224V9.10495Z" fill="#F4E11B"/>
<path d="M17.5333 3.03589C13.9054 3.03589 10.9533 5.98804 10.9533 9.6159C10.9533 13.2438 13.9054 16.1959 17.5333 16.1959C21.1611 16.1959 24.1133 13.2438 24.1133 9.6159C24.1133 5.98804 21.1611 3.03589 17.5333 3.03589ZM17.5333 15.1728C14.4681 15.1728 11.975 12.6798 11.975 9.61454C11.975 6.54931 14.4681 4.05627 17.5333 4.05627C20.5985 4.05627 23.0916 6.54931 23.0916 9.61454C23.0916 12.6798 20.5985 15.1728 17.5333 15.1728Z" fill="#F4E11B"/>
<path d="M38.9898 4.76403H37.1166V2.89084C37.1166 2.60884 36.8878 2.37997 36.6058 2.37997H34.7326V0.51087C34.7326 0.22887 34.5037 0 34.2217 0H0.844855C0.562854 0 0.333984 0.22887 0.333984 0.51087V18.7169C0.333984 18.9989 0.562854 19.2278 0.844855 19.2278H2.71805V21.1051C2.71805 21.3871 2.94691 21.6159 3.22892 21.6159H5.10211V23.4891C5.10211 23.7711 5.33098 24 5.61298 24H38.9898C39.2718 24 39.5007 23.7711 39.5007 23.4891V5.2749C39.5007 4.9929 39.2718 4.76403 38.9898 4.76403ZM6.23419 18.2061C5.98898 15.619 3.94277 13.5728 1.35572 13.3276V5.90157C3.94277 5.65635 5.98898 3.61015 6.23419 1.02174H28.8324C29.0776 3.60879 31.1238 5.65499 33.7108 5.90157V13.3276C31.1238 13.5728 29.0776 15.619 28.8324 18.2061H6.23419ZM33.7108 14.3493V18.2061H29.8541C30.0912 16.1816 31.6864 14.5864 33.7108 14.3493ZM33.7108 4.87983C31.6864 4.64279 30.0912 3.04751 29.8541 1.02174H33.7108V4.87983ZM5.21245 1.02174C4.97541 3.04615 3.38013 4.64279 1.35572 4.87983V1.02174H5.21245ZM1.35572 14.3493C3.38013 14.5864 4.97541 16.1816 5.21245 18.2061H1.35572V14.3493ZM3.73979 19.2278H34.2217C34.5037 19.2278 34.7326 18.9989 34.7326 18.7169V3.40171H36.0949V20.5942H3.73979V19.2278ZM38.479 22.9796H6.12385V21.6173H36.6058C36.8878 21.6173 37.1166 21.3884 37.1166 21.1064V5.78577H38.479V22.9796Z" fill="#F4E11B"/>
</svg>
