<svg width="136" height="136" viewBox="0 0 136 136" fill="none" xmlns="http://www.w3.org/2000/svg">
<circle cx="68" cy="68" r="68" fill="#F8721F"/>
<circle cx="65" cy="65" r="65" fill="white"/>
<path d="M99.3818 85.3953C99.3818 85.3953 97.3381 90.4799 94.4495 89.802C93.9153 88.1488 92.5805 86.4506 88.5543 87.5633V83.4246C88.5644 83.409 89.3852 82.499 89.8961 80.3822C90.119 80.4459 93.2009 81.0065 93.2009 76.6884C93.2009 72.3517 88.7515 69.0337 87.2149 68.8411C86.1806 68.7107 85.1556 69.2068 84.6322 69.6339C83.9419 69.4576 80.6938 69.4576 80.0027 69.6347C79.6137 69.3109 79.0802 68.8854 78.3356 68.7922C78.2828 68.2416 78.1337 67.6927 77.8805 67.1732L72.1236 55.3098C67.9677 45.2541 63.4951 43.6685 58.7328 43.9069C61.7953 42.0992 63.6566 39.1469 63.6566 35.551C63.6566 30.2762 59.3804 26 54.1049 26C48.8301 26 44.5531 30.2762 44.5531 35.5517C44.5531 39.15 46.7366 42.5566 49.4823 43.9115C44.8839 43.712 40.4066 45.2192 36.2368 55.3106L30.4806 67.1732C29.3446 69.4996 30.2834 72.3998 32.6548 73.4621C35.7732 74.859 38.1509 72.9628 38.9584 71.3088L44.5353 60.5364V98.6106C44.5353 101.374 46.7832 103.621 49.546 103.621C51.6364 103.621 53.4309 102.335 54.1825 100.513C54.9264 102.35 56.7287 103.65 58.8291 103.65C61.5927 103.65 63.8406 101.402 63.8406 98.6393V60.569L69.4011 71.3088C69.8624 72.2546 70.8322 73.3207 72.1663 73.7424C71.7011 74.7285 71.4542 75.7302 71.4542 76.6892C71.4542 81.1021 74.5292 80.4475 74.7481 80.3869C74.9609 82.2505 76.0542 83.3935 76.0992 83.4541V87.5641C72.7944 86.2953 71.125 88.0471 70.673 88.7948C68.9384 91.6562 70.8509 96.5575 71.0559 97.1446C70.1769 97.7231 69.4477 98.7123 69.4477 100.209C69.4477 102.041 71.1855 103.651 73.1672 103.651C74.4492 103.651 75.4415 103.121 75.6613 102.994C76.2724 103.402 77.0062 103.651 77.7811 103.651C79.3435 103.651 81.3857 103.224 82.3198 101.944C83.2221 103.223 85.3062 103.65 86.8732 103.65C87.6466 103.65 88.3819 103.402 88.9923 102.993C89.212 103.121 90.2044 103.65 91.4872 103.65C93.468 103.65 95.2058 102.041 95.2058 100.208C95.2058 98.7108 94.4767 97.7215 93.5985 97.1438C102.791 94.2102 99.3818 85.3953 99.3818 85.3953ZM45.7683 35.5517C45.7683 30.9471 49.5002 27.216 54.1041 27.216C58.708 27.216 62.4406 30.9479 62.4406 35.5517C62.4406 40.1556 58.708 43.8875 54.1041 43.8875C49.501 43.8875 45.7683 40.1556 45.7683 35.5517ZM70.4898 70.7614L62.6231 55.5327V98.6393C62.6231 100.734 60.9249 102.432 58.8299 102.432C56.7356 102.432 55.0374 100.734 55.0374 98.6393V76.5285H53.3392V98.6106C53.3392 100.705 51.641 102.404 49.546 102.404C47.4518 102.404 45.7536 100.705 45.7536 98.6106V55.5327L37.8706 70.7614C37.2657 72.0022 35.5783 73.3394 33.1898 72.368C31.4559 71.5216 30.7306 69.4398 31.577 67.7051L37.2781 55.9566C40.3849 49.5319 42.4799 45.1213 48.667 45.1213H59.6926C65.8805 45.1213 67.9755 49.5319 71.0815 55.9566L76.7833 67.7051C76.9775 68.1026 77.0869 68.5181 77.1234 68.932C74.6177 69.922 73.0724 72.1987 72.803 72.6118C71.6716 72.3478 70.8695 71.5363 70.4898 70.7614ZM75.9719 79.2408C75.9719 78.6126 78.2672 73.6368 78.2245 73.6368C77.4659 73.6368 76.0558 76.4625 75.4423 77.7771C75.117 78.4752 74.4771 79.0156 73.9025 79.0156C73.2844 79.0156 72.7409 78.3921 72.7409 76.6682C72.7409 73.4225 76.3027 70.2838 77.5653 70.1557C78.8884 70.0206 79.2441 70.8429 79.5259 71.2125C80.283 70.8786 84.3457 70.8779 85.1012 71.2079C85.3753 70.8499 86.1961 69.9841 87.0914 70.1557C88.3377 70.3941 91.9158 73.4225 91.9158 76.6682C91.9158 78.3928 91.3722 79.0156 90.7541 79.0156C90.1795 79.0156 89.5397 78.4752 89.2151 77.7771C88.6009 76.4625 87.1916 73.636 86.4321 73.636C86.3848 73.636 88.6824 78.653 88.6824 79.2408C88.6824 80.4746 87.6039 85.0785 82.3276 85.0785C76.5395 85.0785 75.9719 79.862 75.9719 79.2408ZM74.5851 102.025C73.1113 102.773 70.8804 101.939 70.8804 100.323C70.8804 98.2355 72.9668 98.0554 72.9668 98.0554C72.9668 98.0554 68.8452 88.5254 73.8893 88.5254C74.5028 88.5254 75.2536 88.6683 76.1621 88.9843V96.9341C73.0422 98.7309 74.2302 101.574 74.5851 102.025ZM86.9578 102.318C84.3861 102.318 82.9985 101.366 82.9985 99.5804C82.9985 97.7929 82.9985 92.7581 82.9985 92.7581C82.972 92.5073 82.8408 92.1423 82.3345 92.1423C81.8003 92.1423 81.6745 92.4832 81.6551 92.7837C81.6551 92.7837 81.6551 97.8349 81.6551 99.5804C81.6551 101.325 80.2675 102.318 77.6957 102.318C76.4564 102.318 75.4276 101.291 75.4276 100.332C75.4276 98.2565 77.5039 98.0764 77.5039 98.0764V84.7935C78.8154 85.7595 80.4655 86.2759 82.3268 86.2759C84.4816 86.2759 86.0392 85.6228 87.1504 84.7904V98.0764C87.1504 98.0764 89.226 98.2565 89.226 100.332C89.226 101.291 88.1979 102.318 86.9578 102.318ZM93.7142 100.294C93.7142 101.323 92.3615 102.99 90.0304 101.987C90.4327 101.506 91.4709 98.5834 88.4635 96.9248V89.0216C89.3658 88.7071 90.112 88.565 90.7215 88.565C92.3801 88.565 93.0417 89.6016 93.1846 90.9885C97.4049 92.3194 98.8872 88.5658 98.8872 88.5658C98.5657 93.957 93.2498 95.6482 92.4252 95.8789C92.0323 97.1314 91.6401 98.0391 91.6401 98.0391C91.6401 98.0391 93.7142 98.22 93.7142 100.294Z" fill="#F8721F"/>
</svg>
