<svg width="136" height="136" viewBox="0 0 136 136" fill="none" xmlns="http://www.w3.org/2000/svg">
<circle cx="68" cy="68" r="68" fill="#F8721F"/>
<circle cx="65" cy="65" r="65" fill="white"/>
<path d="M35.7714 95.5872C35.8793 95.633 35.9905 95.6559 36.1018 95.6559C37.0079 95.6559 37.2664 94.4062 36.4322 94.0496C36.3929 94.0333 32.9024 92.4761 31.9209 87.4806C33.9721 90.1501 35.6568 91.5306 36.9393 91.5928C37.3875 91.5961 37.78 91.2722 37.816 90.8208C37.8291 90.6637 39.1017 75.1766 48.2653 67.8068C48.5531 67.5746 48.6546 67.1787 48.5172 66.8385C48.4223 66.6063 46.3581 61.2837 51.4058 55.7553V59.802C51.4058 60.4923 52.2433 60.9045 52.8027 60.4236C52.9237 60.3222 54.0459 59.4684 55.8974 61.5653C55.9988 61.6798 56.1297 61.7649 56.2769 61.8107C61.521 63.4268 61.678 63.4857 61.7859 63.502C61.956 63.5249 62.0575 63.7081 61.9757 63.8586C60.3236 66.8781 60.2353 66.8748 57.9224 66.8159C57.0784 66.7962 55.9204 66.7668 54.3795 66.8715C53.9215 66.9042 53.5747 67.2968 53.6009 67.7548C53.7318 70.048 53.6271 73.6825 52.9859 74.5756C52.5868 75.135 52.9924 75.9005 53.6663 75.9005H56.5321C57.1504 75.9005 57.6967 76.3389 57.8309 76.9474L58.8842 81.7857H57.3892L55.9661 78.668C55.796 78.2984 55.3838 78.0988 54.9912 78.2068C53.7645 78.5274 50.2804 79.2896 48.9162 78.969C48.275 78.8185 47.7189 79.4336 47.9315 80.0551L48.6512 82.1521C48.8017 82.5905 49.2826 82.826 49.7144 82.6723C50.1528 82.5218 50.3851 82.0442 50.2346 81.6091L49.9271 80.7127C51.5725 80.6833 53.6466 80.2482 54.7262 79.993L56.0839 82.97C56.2213 83.2677 56.519 83.4607 56.8461 83.4607H59.9212C60.4545 83.4607 60.8536 82.9667 60.7391 82.4433L59.4633 76.5875C59.1656 75.2168 57.9323 74.2256 56.5288 74.2256H54.8964C55.3511 72.4688 55.3479 69.9008 55.3021 68.4974C56.3554 68.4549 57.1799 68.4745 57.8701 68.4909C60.785 68.5694 61.4523 68.288 63.4347 64.6601C64.0628 63.5053 63.366 62.0822 62.0771 61.8532L56.9803 60.2796C55.9367 59.1576 54.5758 58.2775 53.0709 58.5393V55.0258C53.0709 53.7924 51.5693 53.184 50.7025 54.0575C45.2621 59.5338 46.237 65.0754 46.7572 66.8785C38.775 73.683 36.7108 85.849 36.2527 89.5917C35.3073 88.9571 33.8253 87.3933 32.0097 84.7664C31.3881 83.8603 29.9553 84.3346 30.0011 85.4338C30.3086 93.1609 35.5494 95.4936 35.7718 95.5882L35.7714 95.5872Z" fill="#F8721F"/>
<path d="M55.3826 96.4646H39.0191C38.5579 96.4646 38.1816 96.8408 38.1816 97.3021C38.1816 97.7634 38.5579 98.1396 39.0191 98.1396H55.3826C56.8613 98.1396 57.7871 96.5366 57.0445 95.2575L56.7664 94.7799C56.0369 93.5237 54.6825 92.745 53.2333 92.745H51.8789L53.0435 91.407C55.0129 89.1367 54.6171 85.6657 52.1832 83.8958C50.3381 82.5545 48.5813 83.006 47.6163 82.9144C47.1551 82.9144 46.7788 83.2906 46.7788 83.7519C46.7788 84.2131 47.1551 84.5893 47.6163 84.5893C48.6893 84.6711 49.8866 84.2949 51.2051 85.2534C52.8506 86.4508 53.1057 88.7832 51.7808 90.3078L49.4124 93.0329C48.9446 93.5726 49.3273 94.4199 50.0438 94.4199H53.2366C54.9444 94.4199 55.4743 95.9574 55.5986 96.0981C55.6902 96.2584 55.5756 96.4646 55.3826 96.4646Z" fill="#F8721F"/>
<path d="M61.6934 50.128L72.3218 56.9195C72.8779 57.2728 73.5715 57.3579 74.1931 57.1485L80.919 55.6829C81.3705 55.5848 81.6584 55.1366 81.5569 54.6851C81.4588 54.2337 81.0204 53.9458 80.5592 54.0439L73.7841 55.5193C73.7482 55.5259 73.7089 55.539 73.6729 55.552C73.5224 55.6077 73.3523 55.588 73.2215 55.503L62.5796 48.705C61.5949 48.103 61.2482 46.8697 61.7683 45.8327C62.3408 44.6909 63.7606 44.2755 64.8598 44.9331L73.2051 49.9252C73.385 50.0332 73.6009 50.0691 73.8038 50.0266L76.7873 49.4116C78.6847 49.0157 84.9822 47.3931 87.9165 48.26C89.5228 48.7344 90.6383 50.1607 90.6972 51.8128L91.1977 66.1739L78.5995 66.5043L78.9038 58.2963C78.9201 57.8351 78.5603 57.4458 78.099 57.4294C77.641 57.3999 77.2485 57.7729 77.2321 58.2341C76.218 85.4782 76.8133 69.9815 75.652 97.5077C75.5637 99.4902 77.1437 101.139 79.1262 101.139C80.8077 101.139 82.2471 99.9383 82.5547 98.2438L84.9264 80.5914L86.3592 97.557C86.4607 99.2648 87.8216 100.668 89.5259 100.815L90.1769 100.871C92.2706 101.048 94.0274 99.3661 93.9554 97.2855C93.5693 86.199 92.758 62.8275 92.372 51.751C92.287 49.3792 90.6873 47.3281 88.3907 46.6509C85.0245 45.6597 79.0311 47.2267 76.4466 47.7697L73.787 48.3193L65.7197 43.494C63.7928 42.3424 61.2804 43.0687 60.2728 45.0773C59.3568 46.906 59.9726 49.0779 61.6934 50.128ZM90.3276 99.2085L89.6766 99.1529C88.7933 99.0744 88.0867 98.3481 88.0344 97.4419L85.957 72.8217C85.921 72.3964 85.571 72.066 85.1424 72.0562C84.7335 72.0627 84.3475 72.3604 84.2919 72.7825L80.906 97.9889C80.7522 98.846 80.0031 99.4675 79.1328 99.4675C78.1089 99.4675 77.2845 98.617 77.3303 97.5832C77.4547 94.5768 76.8822 108.474 78.544 68.186L91.2636 67.8523L92.2909 97.3509C92.3236 98.414 91.4269 99.3066 90.3276 99.2085Z" fill="#F8721F"/>
<path d="M89.1503 30.382C85.2835 25.6483 77.7949 28.4781 77.7949 34.4124V37.6641C77.7949 41.1973 80.6705 44.0728 84.2036 44.0728C87.7138 44.0728 90.6122 41.1972 90.6122 37.6641C90.5075 34.9979 90.9034 33.7515 90.0659 31.8443C91.7637 31.3602 93.6677 32.3285 94.6753 33.6076C97.5606 37.2618 95.588 41.5735 97.5345 44.6523C96.5728 44.6425 95.5946 44.3284 94.8716 43.6938C93.5041 42.4997 93.0625 40.4781 92.755 38.6787C92.6765 38.224 92.248 37.9165 91.79 37.995C91.3353 38.0735 91.0278 38.5054 91.1063 38.96C91.4857 41.1944 92.0713 43.4713 93.7725 44.9532C95.2871 46.2748 97.5673 46.6903 99.4615 45.9673C100.083 45.7318 100.194 44.891 99.6479 44.5017C99.0591 44.0863 98.6207 43.3241 98.408 42.3622C97.9206 40.1508 98.6436 35.9241 95.997 32.5679C94.5118 30.6934 91.7053 29.3614 89.1503 30.382ZM79.4732 37.6641C79.4765 36.6369 79.4601 35.0372 79.4929 34.2291C80.5266 35.0241 82.1493 36.0316 84.0139 36.3C84.1088 37.6576 84.4915 40.2519 85.8982 42.074C82.7086 43.3007 79.4732 40.893 79.4732 37.6641ZM88.9409 37.6641C88.9409 39.0708 88.3128 40.3205 87.3346 41.1907C85.977 39.5877 85.712 36.8365 85.6662 35.9564C85.6302 35.2825 85.1068 34.7395 84.4231 34.6642C82.4569 34.4516 80.6872 33.0939 79.9216 32.4233C80.674 30.8072 82.3065 29.6753 84.2039 29.6753C86.8439 29.6753 88.9376 31.8181 88.9376 34.409L88.9409 37.6641Z" fill="#F8721F"/>
<path d="M56.318 33.4505C60.2862 33.4505 63.7277 36.4045 64.3198 40.3204C64.3885 40.7784 64.8105 41.0892 65.2718 41.0237C65.7298 40.955 66.0438 40.5265 65.9751 40.0718C65.2587 35.3446 61.1073 31.7788 56.3182 31.7788C50.9334 31.7788 46.5498 36.1592 46.5498 41.5472C46.5498 48.0081 52.759 52.7384 59.0241 50.9361C59.469 50.8086 59.7241 50.344 59.5965 49.8991C59.469 49.4542 59.0077 49.1925 58.5595 49.3266C53.3743 50.8183 48.2217 46.9058 48.2217 41.5472C48.2249 37.0817 51.8557 33.4505 56.318 33.4505Z" fill="#F8721F"/>
</svg>
