<svg width="136" height="136" viewBox="0 0 136 136" fill="none" xmlns="http://www.w3.org/2000/svg">
<circle cx="68" cy="68" r="68" fill="#F8721F"/>
<circle cx="65" cy="65" r="65" fill="white"/>
<path d="M83.5863 53.132C94.0965 51.9341 99.6101 46.8307 99.9957 37.9696C100.038 37.1332 99.7597 36.3121 99.2166 35.6745C98.6736 35.0369 97.9074 34.6311 97.0749 34.54L90.9952 33.8755C89.4753 33.7251 88.0407 33.1025 86.8928 32.095C82.1094 27.7711 76.8174 25.6789 71.6156 26.0399C69.1287 26.2787 66.7153 27.0156 64.5191 28.2067C62.323 29.3978 60.3891 31.0187 58.8326 32.9729C57.9055 33.6949 48.0188 41.6371 51.5632 50.3095C52.212 51.8305 53.2248 53.1685 54.5125 54.2059C55.8002 55.2432 57.3233 55.9479 58.9475 56.258C56.8963 66.8257 46.304 75.2437 43.0385 77.5903C41.7217 78.5182 40.5542 79.6415 39.5761 80.9214C36.0317 85.6637 35.0389 91.2265 35.0389 95.6817C32.2657 91.7024 27.3921 81.627 38.6326 70.7147C38.7936 70.5646 38.8884 70.3566 38.8961 70.1366C38.9038 69.9165 38.8237 69.7024 38.6736 69.5414C38.5234 69.3804 38.3155 69.2856 38.0954 69.2779C37.8754 69.2702 37.6613 69.3503 37.5003 69.5004C22.9533 83.6618 33.8164 96.9698 35.1127 98.4467C35.3047 100.184 36.1308 101.789 37.4328 102.955C38.7348 104.12 40.4212 104.765 42.1688 104.764H73.1991C73.4167 104.764 73.6254 104.678 73.7792 104.524C73.9331 104.37 74.0196 104.161 74.0196 103.944V103.123C74.0177 101.446 73.4567 99.8178 72.4255 98.4953C71.3942 97.1727 69.9515 96.2318 68.3255 95.8212C69.9004 94.2885 71.1383 92.4442 71.9602 90.4061C72.2479 93.7664 73.2107 97.0342 74.7908 100.014C75.605 101.451 76.7858 102.646 78.2128 103.478C79.6398 104.309 81.2618 104.748 82.9135 104.748H87.4015C88.5178 104.748 89.5884 104.304 90.3777 103.515C91.1671 102.726 91.6105 101.655 91.6105 100.539C91.6086 99.3894 91.1567 98.2864 90.3516 97.466C89.5466 96.6456 88.4522 96.173 87.303 96.1494H86.4825C85.7658 96.1449 85.0676 95.9218 84.4811 95.5098C83.8946 95.0978 83.4479 94.5166 83.2007 93.8438C82.5115 91.8829 82.1094 88.1005 84.0211 81.3891C87.1143 70.7229 85.2026 67.1046 82.3227 61.6977C81.5023 60.2208 80.6818 58.5635 79.7875 56.5697C79.7507 55.8101 79.9864 55.0624 80.4521 54.4611C80.8547 54.0355 81.3409 53.6977 81.8803 53.469C82.4196 53.2403 83.0005 53.1255 83.5863 53.132ZM98.3302 37.8958C98.2981 38.6828 98.2132 39.4667 98.0758 40.2423C97.678 40.3834 97.259 40.4556 96.8369 40.4556C95.8431 40.4513 94.8916 40.0535 94.1904 39.3492C93.4892 38.645 93.0956 37.6917 93.0956 36.6979C93.1007 36.3819 93.1448 36.0677 93.2268 35.7625L96.8779 36.1564C97.2972 36.204 97.6821 36.4112 97.9525 36.7352C98.2229 37.0591 98.3582 37.4747 98.3302 37.8958ZM78.2204 56.8651C78.2308 56.9419 78.2529 57.0166 78.286 57.0866C79.1967 59.187 80.1157 60.9182 80.9279 62.4443C83.7258 67.7036 85.4077 70.8788 82.5033 80.9378C80.8623 86.6811 80.5669 91.2101 81.6828 94.3936C82.0399 95.3759 82.6869 96.2266 83.5381 96.8331C84.3893 97.4397 85.4047 97.7735 86.4497 97.7903H87.2702C87.9835 97.8095 88.6613 98.1053 89.1605 98.6151C89.6596 99.125 89.9409 99.809 89.9449 100.522C89.9449 101.204 89.6744 101.857 89.1928 102.338C88.7112 102.82 88.058 103.091 87.3769 103.091H82.8889C81.5278 103.092 80.1909 102.732 79.0146 102.047C77.8383 101.362 76.8649 100.377 76.1938 99.1933C71.5992 91.0542 73.9785 78.3861 74.0032 78.2548C74.0445 78.0372 73.9977 77.8121 73.8731 77.629C73.7484 77.4459 73.5562 77.3198 73.3386 77.2785C73.121 77.2371 72.8959 77.2839 72.7127 77.4086C72.5296 77.5332 72.4035 77.7255 72.3622 77.9431C72.071 79.5518 71.8765 81.1765 71.7797 82.8085C70.8605 80.8628 69.3952 79.2265 67.5624 78.099C63.2057 75.3093 57.2901 75.0468 52.1293 77.4262C51.9313 77.5176 51.7777 77.6839 51.7023 77.8885C51.6269 78.0932 51.6359 78.3194 51.7273 78.5174C51.8187 78.7154 51.985 78.869 52.1897 78.9444C52.3943 79.0198 52.6205 79.0108 52.8185 78.9194C57.4788 76.7698 62.7873 76.9913 66.6845 79.4774C67.9636 80.2197 69.0321 81.2762 69.7888 82.5468C70.5454 83.8175 70.9652 85.2603 71.0084 86.7385C71.0084 89.7825 69.2608 92.9249 65.9543 95.8294C65.8294 95.9396 65.741 96.0851 65.7008 96.2468C65.6606 96.4084 65.6705 96.5784 65.7293 96.7343C65.7881 96.8901 65.8929 97.0244 66.0298 97.1192C66.1667 97.2141 66.3293 97.265 66.4958 97.2652C68.0554 97.2674 69.5504 97.8879 70.6532 98.9906C71.756 100.093 72.3764 101.588 72.3786 103.148H42.1688C40.7672 103.159 39.4152 102.629 38.3933 101.67C37.3713 100.711 36.7578 99.3949 36.6798 97.9954C36.4173 93.5485 36.9342 87.1488 40.8642 81.9142C41.754 80.7596 42.8167 79.7495 44.0149 78.9194C48.3634 75.7606 58.5208 67.3426 60.5802 56.4713C60.9084 56.4713 61.2366 56.5123 61.5566 56.5123C62.2498 56.5151 62.9419 56.4547 63.6242 56.3318C67.464 55.6426 71.632 52.7956 71.8289 46.8471C72.2247 43.8729 71.7843 40.8472 70.5572 38.1091C70.4591 37.9262 70.2954 37.7873 70.099 37.7203C69.9026 37.6534 69.6881 37.6633 69.4988 37.7481C69.3041 37.845 69.1558 38.0152 69.0866 38.2214C69.0174 38.4275 69.0328 38.6527 69.1295 38.8475C70.8854 42.3509 70.2454 46.6092 70.2454 46.6584C70.2454 46.7077 70.2454 46.7241 70.2454 46.7569C70.2745 48.6953 69.5915 50.577 68.3258 52.0454C67.06 53.5138 65.2995 54.4667 63.378 54.7237C59.571 55.4129 54.8123 53.9032 53.0893 49.6778C49.9305 41.9407 59.7926 34.2939 59.891 34.22C59.9895 34.1462 59.891 34.22 59.9402 34.1626L60.0223 34.097C63.2303 30.2654 67.4065 27.9845 71.7715 27.6727C76.5138 27.3445 81.3874 29.3136 85.8344 33.3093C87.2278 34.5474 88.9764 35.314 90.8311 35.5L91.6515 35.5902C91.5756 35.9573 91.5371 36.3312 91.5367 36.7061C91.5367 38.1351 92.1032 39.5058 93.1121 40.5178C94.121 41.5297 95.49 42.1005 96.919 42.1048C97.1939 42.1001 97.4681 42.0755 97.7394 42.031C96.0985 47.4871 91.3808 50.6049 83.4878 51.4992C82.6923 51.5121 81.908 51.6901 81.1849 52.022C80.4617 52.3539 79.8155 52.8325 79.287 53.4273C78.5058 54.3952 78.1242 55.6251 78.2204 56.8651Z" fill="#F8721F"/>
<path d="M78.0809 35.27C77.5418 35.2808 77.0285 35.5025 76.6511 35.8875C76.2737 36.2726 76.0624 36.7903 76.0625 37.3294C76.0625 37.547 76.1489 37.7557 76.3028 37.9096C76.4567 38.0634 76.6654 38.1499 76.883 38.1499C77.1006 38.1499 77.3093 38.0634 77.4631 37.9096C77.617 37.7557 77.7034 37.547 77.7034 37.3294C77.7024 37.2748 77.7122 37.2206 77.7323 37.1699C77.7524 37.1192 77.7825 37.073 77.8207 37.034C77.8589 36.995 77.9045 36.9641 77.9548 36.943C78.0051 36.9218 78.0591 36.911 78.1137 36.911C78.3313 36.911 78.54 36.8245 78.6938 36.6707C78.8477 36.5168 78.9342 36.3081 78.9342 36.0905C78.9342 35.8729 78.8477 35.6642 78.6938 35.5103C78.54 35.3565 78.3313 35.27 78.1137 35.27H78.0809Z" fill="#F8721F"/>
</svg>
