<svg width="48" height="48" viewBox="0 0 48 48" fill="none" xmlns="http://www.w3.org/2000/svg">
<g clip-path="url(#clip0_492_677)">
<path fill-rule="evenodd" clip-rule="evenodd" d="M34.1949 0.000317326C33.9773 -0.0230264 33.7672 0.0336923 33.5654 0.140942L18.4582 8.20344C12.5481 9.9051 8.62635 16.1864 8.13037 17.0159C4.57478 21.4207 0.984877 24.8345 0.949813 24.8675C0.723766 25.082 0.598619 25.3758 0.600111 25.6878C0.601603 25.9998 0.722274 26.2959 0.949813 26.5081C0.987115 26.5426 4.69508 29.9829 8.24694 34.3831C8.82287 35.3581 13.9485 43.6409 21.4424 43.6409C21.6644 43.6409 21.874 43.6321 22.0951 43.6175L36.6894 47.2269C36.7782 47.2486 36.8804 47.2503 36.9692 47.2503C37.3563 47.2503 37.7199 47.0563 37.925 46.7113C38.1772 46.2875 38.1141 45.7421 37.7851 45.3753L31.4672 38.3441C32.48 37.2321 33.475 35.959 34.4513 34.5003C34.47 34.4741 36.3621 31.805 39.3238 31.805C41.1628 31.805 43.1469 32.8138 45.1522 34.805C45.4745 35.1238 46.0437 35.2126 46.4577 35.0394C46.8748 34.8646 47.297 34.4384 47.297 33.9847V17.4613C47.297 17.0083 46.8748 16.5806 46.4577 16.4066C46.043 16.2318 45.403 16.3214 45.0823 16.6409C43.0814 18.6269 41.1328 19.6409 39.3005 19.6409C36.3403 19.6409 34.4685 16.9469 34.4513 16.9222C33.4419 15.4141 32.4216 14.099 31.3739 12.9613L35.1507 1.47688C35.2939 1.04038 35.1501 0.55513 34.801 0.25813C34.6264 0.110005 34.4124 0.0236611 34.1949 0.000317326ZM32.1433 3.44563L29.5788 11.2269C27.6301 9.53478 25.6149 8.4564 23.5639 8.01594L32.1433 3.44563ZM21.4424 10.0316C25.2441 10.0316 29.0553 12.7736 32.6795 18.1878C32.7809 18.3393 35.2934 21.8909 39.4637 21.8909C41.2713 21.8909 42.8208 21.2278 45.0589 19.8988V31.5472C42.8208 30.2152 41.2532 29.5316 39.4404 29.5316C35.2716 29.5316 32.6884 33.0824 32.5862 33.2347C28.9635 38.6467 25.2173 41.3909 21.4424 41.3909C14.9489 41.3909 10.1831 33.2696 10.1353 33.1878C10.1062 33.1368 10.0786 33.0922 10.0421 33.0472C7.37203 29.7307 4.66468 26.9716 3.32779 25.6644C4.63409 24.3654 7.26889 21.6746 9.92551 18.3753C9.96132 18.3311 10.013 18.2842 10.0421 18.2347C10.0718 18.183 12.0041 14.9106 15.0778 12.5159C15.149 12.4949 15.2195 12.4585 15.2876 12.4222L19.0877 10.3831C19.8465 10.1609 20.6231 10.0316 21.4424 10.0316ZM20.5565 17.1331C20.4127 17.1514 20.2698 17.1963 20.1368 17.2738C19.6027 17.5835 19.4106 18.2594 19.7172 18.7972C19.847 19.0244 22.854 24.44 19.6939 30.68C19.4134 31.2343 19.6329 31.898 20.1834 32.18C20.3461 32.2625 20.5248 32.2972 20.6963 32.2972C21.1037 32.2972 21.5011 32.0778 21.6988 31.6878C25.4267 24.3258 21.8066 17.9407 21.6522 17.6722C21.4189 17.27 20.9876 17.0782 20.5565 17.1331ZM25.6621 17.1331C25.5183 17.1514 25.3756 17.1963 25.2425 17.2738C24.7083 17.5835 24.5395 18.2594 24.8461 18.7972C24.976 19.0244 27.983 24.44 24.8228 30.68C24.5423 31.2343 24.7618 31.898 25.3124 32.18C25.475 32.2625 25.6312 32.2972 25.802 32.2972C26.2093 32.2972 26.6068 32.0778 26.8045 31.6878C30.5324 24.3258 26.9363 17.9407 26.7812 17.6722C26.5484 17.27 26.0936 17.0782 25.6621 17.1331ZM13.0029 20.9066C10.8871 20.9066 9.15616 22.5749 9.15616 24.6097C9.15616 26.6437 10.8871 28.2894 13.0029 28.2894C15.1186 28.2894 16.8496 26.6437 16.8496 24.6097C16.8496 22.5749 15.1186 20.9066 13.0029 20.9066ZM13.0029 23.1566C13.8847 23.1566 14.6115 23.8154 14.6115 24.6097C14.6115 25.4032 13.8847 26.0394 13.0029 26.0394C12.1211 26.0394 11.3943 25.4032 11.3943 24.6097C11.3943 23.8154 12.1211 23.1566 13.0029 23.1566ZM29.9052 39.9378L33.682 44.1566L26.4548 42.3753C27.6144 41.7758 28.7804 40.9556 29.9052 39.9378Z" fill="#02000F"/>
</g>
<defs>
<clipPath id="clip0_492_677">
<rect width="47" height="48" fill="white" transform="translate(0.600098)"/>
</clipPath>
</defs>
</svg>
