<svg width="49" height="48" viewBox="0 0 49 48" fill="none" xmlns="http://www.w3.org/2000/svg">
<g clip-path="url(#clip0_492_690)">
<path d="M4.07199 26.9658C3.65399 26.9658 3.26399 26.6998 3.11999 26.2818C2.06799 23.1218 2.66199 14.7418 11.318 10.4378C13.944 9.12782 16.496 8.46582 18.888 8.46582C25.362 8.46582 29.086 13.1458 30.87 15.3958C31.186 15.7938 31.234 16.4618 30.87 16.8218C29.286 18.4078 27.17 19.9038 24.41 21.3938C19.49 24.0478 14.32 24.9418 10.166 25.6638C7.91999 26.0518 5.97799 26.3878 4.38199 26.9158C4.27799 26.9518 4.17199 26.9658 4.07199 26.9658ZM18.888 10.4658C16.804 10.4658 14.556 11.0598 12.204 12.2318C5.42999 15.6018 4.42399 21.7738 4.81199 24.6978C6.31799 24.2938 8.02799 23.9898 9.82399 23.6838C14.04 22.9558 18.826 22.1298 23.456 19.6298C25.678 18.4278 27.438 17.2498 28.806 16.0138C26.998 13.8138 23.828 10.4658 18.888 10.4658Z" fill="#02000F"/>
<path d="M33.7182 40.7059C30.9762 40.7059 29.2882 39.0159 28.2782 38.0059C28.1082 37.8339 27.8862 37.6159 27.7522 37.5059L24.4922 37.5159C21.3702 37.5159 17.7962 37.4639 14.3862 36.8899C13.5202 38.8139 11.5742 39.9679 9.09422 39.9679C8.21222 39.9679 7.32422 39.8219 6.52622 39.5339C5.80222 39.2759 4.81622 38.8259 4.59422 37.8819C4.36022 36.8579 5.14822 36.0679 5.90822 35.2919C6.16822 35.0299 6.44622 34.7499 6.69022 34.4599C4.88822 34.1079 3.15222 33.8619 1.82222 34.0259C1.47022 34.0679 1.11422 33.9239 0.904221 33.6439C0.688221 33.3539 0.636221 32.9819 0.778221 32.6539C2.28022 29.0339 6.64422 28.2779 11.6902 27.4079C15.9082 26.6779 20.6902 25.8499 25.3202 23.3499C32.5602 19.4459 33.6162 16.3819 34.6382 13.4099C35.0322 12.2719 35.4382 11.0919 36.1862 9.9519C37.6222 7.7519 39.4542 7.2959 40.7342 7.2959C42.9222 7.2959 45.3502 8.6939 47.0702 10.9299C48.5282 12.8339 49.0462 15.4119 48.4602 17.8279C48.0342 19.5899 47.0742 20.9439 45.8282 21.5299C44.9922 21.9199 44.1202 22.1279 43.2382 22.1279C42.0242 22.1279 40.8402 21.7179 39.9802 21.0299C37.6882 23.2139 36.6942 25.6699 35.7382 28.0579C35.3782 28.9399 35.0342 29.7959 34.6442 30.5939C34.4802 32.8359 35.6762 34.5279 36.6402 35.8939C37.4462 37.0419 38.1482 38.0299 37.6922 39.0899C37.2442 40.1319 35.9122 40.4659 34.5442 40.6639C34.2442 40.6899 33.9802 40.7059 33.7182 40.7059ZM27.9282 35.5059C28.6042 35.5059 29.0842 35.9859 29.6922 36.5939C30.6702 37.5679 32.0482 38.9359 34.2882 38.6679C35.6082 38.4739 35.8762 38.2439 35.9062 38.2159C35.8162 38.1739 35.3542 37.5099 35.0122 37.0319C33.9582 35.5359 32.3622 33.2679 32.6802 30.1959C32.6922 30.0699 32.7242 29.9579 32.7822 29.8459C33.1862 29.0519 33.5322 28.1879 33.8902 27.2979C34.9822 24.5899 36.2162 21.5199 39.3962 18.8679C39.6102 18.6879 39.8962 18.6059 40.1742 18.6459C40.4522 18.6859 40.7022 18.8359 40.8622 19.0639C41.2282 19.5879 42.1082 20.1139 43.2522 20.1139C43.8342 20.1139 44.4162 19.9779 44.9862 19.7059C45.6742 19.3819 46.2522 18.4979 46.5282 17.3459C46.8722 15.9279 46.7802 13.8119 45.4882 12.1379C44.1342 10.3759 42.3202 9.2799 40.7422 9.2799C39.5942 9.2799 38.6222 9.8699 37.8662 11.0299C37.2542 11.9679 36.9082 12.9799 36.5342 14.0499C35.4402 17.2219 34.2002 20.8199 26.2702 25.0919C21.3522 27.7459 16.1842 28.6359 12.0322 29.3599C8.36822 29.9939 5.31422 30.5279 3.65422 31.9899C5.16222 32.0919 6.85422 32.4159 8.48022 32.7739C8.76222 32.8299 9.00422 33.0099 9.14022 33.2599C9.28022 33.5099 9.30622 33.8039 9.21222 34.0779C8.83622 35.1699 8.00422 36.0099 7.33622 36.6919C7.12422 36.9019 6.83222 37.2039 6.66622 37.4079C6.77422 37.4639 6.94422 37.5419 7.20022 37.6359C7.78622 37.8439 8.44422 37.9559 9.10022 37.9559C10.0162 37.9559 12.2102 37.7139 12.7662 35.4979C12.8922 34.9819 13.4002 34.6579 13.9302 34.7599C17.4162 35.4499 21.2142 35.5059 24.5002 35.5059H27.9282Z" fill="#02000F"/>
<path d="M42.498 14.5059C42.498 15.0584 42.0505 15.5059 41.498 15.5059C40.9455 15.5059 40.498 15.0584 40.498 14.5059C40.498 13.9534 40.9455 13.5059 41.498 13.5059C42.0505 13.5059 42.498 13.9534 42.498 14.5059Z" fill="#02000F"/>
</g>
<defs>
<clipPath id="clip0_492_690">
<rect width="48" height="48" fill="white" transform="translate(0.700195)"/>
</clipPath>
</defs>
</svg>
