<svg width="49" height="48" viewBox="0 0 49 48" fill="none" xmlns="http://www.w3.org/2000/svg">
<path d="M47.8932 12.6493C47.7612 12.1948 47.3681 11.865 46.8982 11.8137L41.2376 11.1906C39.6996 7.3991 37.159 4.72214 33.8542 3.42566C32.7401 2.98886 31.5521 2.76758 30.3243 2.76758C24.8969 2.76758 20.0115 7.03526 19.434 12.2812C19.3078 13.4274 19.362 14.5617 19.5838 15.6517L10.6102 8.18342C10.3601 7.9751 10.0356 7.8815 9.71212 7.9223C9.38956 7.96406 9.09868 8.1383 8.91004 8.40326C8.81884 8.53142 0.168278 20.9543 9.88684 31.2993C7.30972 33.4151 3.30268 36.5538 2.4334 37.2335C2.16076 37.4466 1.99708 37.7692 1.98508 38.1153C1.97308 38.4604 2.11516 38.7935 2.37244 39.0249C6.16348 42.4309 10.8526 44.5266 15.9324 45.0853C16.8228 45.1833 17.7267 45.2332 18.618 45.2332C18.619 45.2332 18.6185 45.2332 18.6195 45.2332C31.0064 45.2332 41.3715 35.9346 42.7294 23.6034C42.942 21.6633 42.955 19.6314 42.7673 17.685L47.502 13.8887C47.8707 13.5925 48.0252 13.1034 47.8932 12.6493ZM40.8036 16.2604C40.4883 16.5133 40.3256 16.9113 40.3736 17.313C40.6107 19.2786 40.6217 21.3652 40.4033 23.3476C39.1764 34.4917 29.8107 42.8946 18.6176 42.8937C17.8112 42.8937 16.9937 42.849 16.1873 42.7602C12.0646 42.3071 8.227 40.7332 5.00668 38.1887C6.92236 36.6829 10.4763 33.8749 12.3742 32.2746C12.6296 32.0596 12.7808 31.7457 12.7894 31.4121C12.7985 31.0789 12.6646 30.7573 12.4212 30.5284C4.3582 22.9468 8.37916 13.917 10.1417 10.8369L22.8497 21.4122C23.3355 21.8169 24.0555 21.7617 24.474 21.2874C24.8931 20.8132 24.859 20.0922 24.3968 19.6597C22.4259 17.8137 21.4644 15.2173 21.7587 12.5365C22.2094 8.43926 26.0518 5.10614 30.3238 5.10614C31.2584 5.10614 32.1588 5.27318 32.9998 5.60294C35.898 6.74006 38.0192 9.12086 39.3036 12.6791C39.4707 13.1413 39.9017 13.4365 40.3731 13.4481L43.8363 13.8292L40.8036 16.2604Z" fill="#02000F"/>
<path d="M31.5184 9.46058C29.6229 9.2513 27.9659 10.6212 27.7615 12.4726C27.5555 14.3383 28.9072 16.0236 30.773 16.2291C30.8992 16.243 31.024 16.2497 31.1483 16.2497C32.8859 16.2497 34.3399 14.9465 34.5304 13.2175C34.7359 11.3518 33.3851 9.6665 31.5184 9.46058ZM32.2058 12.9617C32.1415 13.5425 31.6173 13.9668 31.0293 13.9044C30.4456 13.8401 30.0223 13.3126 30.0871 12.7289C30.1461 12.1875 30.6007 11.779 31.1445 11.779C31.1834 11.779 31.2232 11.7809 31.2626 11.7852C31.8467 11.85 32.2696 12.378 32.2058 12.9617Z" fill="#02000F"/>
</svg>
