<svg width="49" height="48" viewBox="0 0 49 48" fill="none" xmlns="http://www.w3.org/2000/svg">
<path d="M44.2735 25.2986L46.4141 24.9889C46.6765 24.9508 46.913 24.8101 47.0716 24.5976C47.2302 24.3852 47.2979 24.1185 47.2599 23.8561C47.2218 23.5937 47.081 23.3572 46.8686 23.1986C46.6562 23.04 46.3894 22.9723 46.127 23.0104L44.2735 23.2786V5.83852C44.2737 4.89573 43.9854 3.97546 43.4474 3.20127C42.9093 2.42707 42.1473 1.83601 41.2637 1.50743C40.38 1.17886 39.4169 1.1285 38.5038 1.36312C37.5907 1.59774 36.7712 2.1061 36.1554 2.81996L29.9796 9.97621C28.3334 9.05492 26.4753 8.57928 24.589 8.59633C22.705 8.56953 20.8488 9.05165 19.216 9.99184L13.1007 2.86784C12.4859 2.15199 11.6666 1.64156 10.753 1.40516C9.83949 1.16876 8.87545 1.21773 7.99055 1.54548C7.10565 1.87324 6.34231 2.46407 5.80317 3.23853C5.26402 4.01299 4.97492 4.93396 4.97473 5.87761V23.3145L2.87317 23.0104C2.6108 22.9723 2.34405 23.04 2.13161 23.1986C1.91916 23.3572 1.77843 23.5937 1.74035 23.8561C1.70228 24.1185 1.76999 24.3852 1.92859 24.5977C2.08719 24.8101 2.32369 24.9508 2.58606 24.9889L4.97473 25.3345V27.7965C4.97975 29.2554 5.15343 30.7088 5.49231 32.1278L2.50305 32.8229C2.26413 32.8786 2.05401 33.0201 1.91266 33.2206C1.77131 33.4211 1.70859 33.6665 1.73645 33.9102C1.76431 34.154 1.88079 34.3789 2.06374 34.5424C2.24669 34.7058 2.48333 34.7963 2.72864 34.7966C2.80526 34.7969 2.88165 34.788 2.95617 34.7702L6.05426 34.0497C7.35292 37.7668 9.77384 40.9889 12.9826 43.2709C16.1913 45.5528 20.0295 46.7821 23.9669 46.7887H25.2814C29.2091 46.782 33.0382 45.5587 36.2423 43.2871C39.4465 41.0154 41.8682 37.8069 43.1745 34.1029L46.044 34.7702C46.1186 34.788 46.1949 34.7969 46.2716 34.7965C46.5169 34.7962 46.7535 34.7058 46.9365 34.5423C47.1194 34.3789 47.2359 34.1539 47.2638 33.9102C47.2916 33.6665 47.2289 33.421 47.0875 33.2206C46.9462 33.0201 46.7361 32.8785 46.4972 32.8229L43.742 32.1821C44.0898 30.746 44.2682 29.2741 44.2735 27.7965V25.2986ZM35.3946 32.2936L41.2138 33.6469C40.0152 36.9098 37.8454 39.7271 34.9968 41.7192C32.1481 43.7113 28.7574 44.7825 25.2813 44.7887H23.9669C20.4811 44.7825 17.0815 43.7053 14.2282 41.7029C11.375 39.7005 9.20602 36.8697 8.01498 33.5937L13.6056 32.2936C13.8634 32.2332 14.0866 32.0729 14.2264 31.8479C14.3661 31.623 14.4109 31.3518 14.3509 31.0939C14.2908 30.8359 14.1309 30.6124 13.9063 30.4722C13.6816 30.3321 13.4105 30.2868 13.1524 30.3464L7.43869 31.6751C7.13488 30.4045 6.97918 29.1029 6.97469 27.7965V25.624L13.2354 26.5299C13.2832 26.5373 13.3316 26.5409 13.38 26.5407C13.6325 26.5404 13.8756 26.4445 14.0604 26.2722C14.2452 26.1 14.3579 25.8643 14.376 25.6123C14.394 25.3604 14.3161 25.1109 14.1578 24.9141C13.9994 24.7173 13.7725 24.5877 13.5225 24.5514L6.97469 23.6039V5.87758C6.96749 5.34077 7.12853 4.81518 7.43521 4.37453C7.74188 3.93389 8.17881 3.60031 8.68469 3.42058C8.98655 3.30982 9.30553 3.25295 9.62707 3.25258C10.0007 3.25125 10.37 3.33291 10.7083 3.49167C11.0466 3.65042 11.3454 3.8823 11.5831 4.17058L18.0236 11.6735C18.03 11.696 18.045 11.7139 18.053 11.7356C18.0688 11.776 18.0874 11.8153 18.1086 11.8532C18.1434 11.9205 18.1859 11.9835 18.2352 12.0411C18.2631 12.0747 18.2933 12.1064 18.3255 12.136C18.3856 12.188 18.4518 12.2326 18.5226 12.2688C18.5555 12.2891 18.5896 12.3074 18.6247 12.3236C18.7391 12.3701 18.8611 12.3947 18.9845 12.3962C19.1352 12.3962 19.284 12.362 19.4196 12.2962C19.452 12.2738 19.4831 12.2495 19.5126 12.2234C19.6027 12.1731 19.6844 12.1092 19.755 12.0339C21.1738 11.0557 22.8662 10.5524 24.589 10.5964C26.3534 10.5661 28.0842 11.0811 29.545 12.071C29.74 12.1929 29.9654 12.2576 30.1954 12.2575C30.3391 12.2575 30.481 12.2265 30.6116 12.1667C30.7422 12.1069 30.8584 12.0196 30.9523 11.9108L37.6691 4.12665C38.0184 3.72184 38.4832 3.43358 39.0011 3.30055C39.5189 3.16752 40.0651 3.19608 40.5663 3.38241C41.0674 3.56874 41.4996 3.90392 41.8048 4.34296C42.11 4.782 42.2736 5.30388 42.2736 5.83857V23.568L35.4777 24.5514C35.2277 24.5877 35.0008 24.7173 34.8425 24.9141C34.6841 25.1109 34.6062 25.3604 34.6242 25.6123C34.6423 25.8643 34.755 26.1 34.9398 26.2722C35.1246 26.4445 35.3677 26.5404 35.6203 26.5407C35.6686 26.5409 35.717 26.5373 35.7648 26.5299L42.2736 25.5881V27.7965C42.2688 29.1217 42.1083 30.4418 41.7956 31.7295L35.8478 30.3463C35.7199 30.3163 35.5873 30.3118 35.4576 30.3331C35.3279 30.3544 35.2036 30.4011 35.092 30.4704C34.9804 30.5398 34.8835 30.6305 34.8069 30.7373C34.7304 30.8441 34.6756 30.965 34.6459 31.093C34.6161 31.221 34.6118 31.3536 34.6333 31.4833C34.6549 31.6129 34.7017 31.7371 34.7713 31.8486C34.8409 31.9601 34.9317 32.0568 35.0387 32.1332C35.1457 32.2095 35.2666 32.2641 35.3946 32.2936Z" fill="#02000F"/>
<path d="M19.1798 21.7291C19.272 21.8234 19.382 21.8985 19.5034 21.95C19.6249 22.0015 19.7553 22.0284 19.8872 22.0292C20.0191 22.0299 20.1498 22.0045 20.2718 21.9543C20.3938 21.9042 20.5047 21.8304 20.5979 21.7371C20.6912 21.6438 20.765 21.533 20.8152 21.411C20.8653 21.289 20.8907 21.1583 20.89 21.0264C20.8892 20.8945 20.8623 20.764 20.8108 20.6426C20.7593 20.5212 20.6843 20.4112 20.5899 20.319C20.5469 20.268 20.4962 20.2242 20.4396 20.1891C20.3898 20.1598 20.3302 20.1295 20.2696 20.0992C20.2081 20.0769 20.1447 20.0602 20.0802 20.0494C19.8863 20.0065 19.6839 20.0238 19.5001 20.0992C19.3801 20.1511 19.2714 20.2257 19.1798 20.319C19.0852 20.4089 19.0104 20.5177 18.9605 20.6383C18.9105 20.7589 18.8865 20.8886 18.8898 21.0191C18.8849 21.1513 18.9083 21.283 18.9583 21.4054C19.0083 21.5278 19.0838 21.6382 19.1798 21.7291Z" fill="#02000F"/>
<path d="M29.3193 22.0195C29.4495 22.0201 29.5784 21.9947 29.6986 21.9449C29.8188 21.8951 29.9279 21.8219 30.0195 21.7295C30.1142 21.6371 30.1895 21.5266 30.2409 21.4047C30.2924 21.2828 30.3191 21.1519 30.3193 21.0195C30.3188 20.8887 30.292 20.7593 30.2405 20.639C30.189 20.5187 30.1139 20.41 30.0195 20.3193C29.9766 20.2687 29.9263 20.2249 29.8701 20.1894C29.8193 20.1602 29.7598 20.1299 29.7002 20.0996C29.6397 20.0801 29.5801 20.0596 29.5098 20.04C29.3483 20.0094 29.1818 20.0189 29.0248 20.0676C28.8678 20.1163 28.7252 20.2027 28.6094 20.3193C28.5166 20.4106 28.4431 20.5197 28.3933 20.64C28.3434 20.7603 28.3183 20.8893 28.3194 21.0195C28.3181 21.1512 28.3431 21.2818 28.3929 21.4037C28.4427 21.5256 28.5163 21.6364 28.6094 21.7295C28.7025 21.8226 28.8133 21.8962 28.9352 21.946C29.0571 21.9958 29.1877 22.0208 29.3193 22.0195Z" fill="#02000F"/>
<path d="M30.3096 34.6133C30.1782 34.6132 30.0482 34.639 29.9268 34.6893C29.8055 34.7395 29.6952 34.8132 29.6023 34.906C29.5094 34.9989 29.4358 35.1092 29.3856 35.2305C29.3353 35.3519 29.3095 35.482 29.3096 35.6133C29.3096 36.3399 28.4658 36.9531 27.4668 36.9531C26.4678 36.9531 25.624 36.3399 25.624 35.6133V31.3C26.3133 31.2339 26.9585 30.9312 27.4499 30.4434C27.9414 29.9556 28.2489 29.3128 28.3203 28.624C28.3203 27.0606 26.6963 25.835 24.624 25.835C22.5517 25.835 20.9287 27.0606 20.9287 28.624C20.9999 29.3127 21.3073 29.9555 21.7986 30.4432C22.2899 30.931 22.9349 31.2337 23.624 31.3V35.6133C23.624 36.3399 22.7803 36.9531 21.7812 36.9531C20.7822 36.9531 19.9385 36.3399 19.9385 35.6133C19.9385 35.3481 19.8331 35.0937 19.6456 34.9062C19.458 34.7187 19.2037 34.6133 18.9385 34.6133C18.6733 34.6133 18.4189 34.7187 18.2314 34.9062C18.0438 35.0937 17.9385 35.3481 17.9385 35.6133C18.0107 36.5636 18.4546 37.4472 19.174 38.0724C19.8933 38.6976 20.8301 39.0141 21.7812 38.9531C22.8369 38.9631 23.8556 38.5644 24.624 37.8405C25.3925 38.5644 26.4111 38.9631 27.4668 38.9531C28.4179 39.0141 29.3547 38.6976 30.0741 38.0724C30.7934 37.4472 31.2373 36.5636 31.3096 35.6133C31.3096 35.482 31.2838 35.3519 31.2336 35.2305C31.1834 35.1092 31.1097 34.9989 31.0168 34.906C30.924 34.8132 30.8137 34.7395 30.6924 34.6893C30.571 34.639 30.4409 34.6132 30.3096 34.6133ZM22.9287 28.624C22.9287 28.3457 23.5723 27.835 24.624 27.835C25.6768 27.835 26.3203 28.3457 26.3203 28.624C26.3203 28.9023 25.6768 29.4121 24.624 29.4121C23.5723 29.4121 22.9287 28.9024 22.9287 28.624Z" fill="#02000F"/>
</svg>
