<svg width="27" height="27" viewBox="0 0 27 27" fill="none" xmlns="http://www.w3.org/2000/svg">
<path d="M13.3333 25.5552C12.3333 25.5552 11.2221 25.4441 10.2221 25.1108C9.66659 24.9997 9.22214 24.333 9.44437 23.7774C9.55548 23.2219 10.2221 22.7774 10.7777 22.9997C14.2221 23.8886 17.8888 22.8886 20.4444 20.4441C24.3333 16.5552 24.3333 10.2219 20.4444 6.33301C16.5555 2.44412 10.2221 2.44412 6.33325 6.33301C3.7777 8.88856 2.7777 12.5552 3.7777 15.9997C3.88881 16.5552 3.55548 17.2219 2.99992 17.333C2.44437 17.4441 1.7777 17.1108 1.66659 16.5552C0.444366 12.333 1.66659 7.77745 4.66659 4.66634C9.44437 -0.111436 17.2221 -0.111436 21.9999 4.66634C26.7777 9.44412 26.7777 17.2219 21.9999 21.9997C19.6666 24.333 16.5555 25.5552 13.3333 25.5552ZM5.55548 22.2219C5.22214 22.2219 4.99992 22.1108 4.7777 21.8886C4.33325 21.4441 4.33325 20.7774 4.7777 20.333L13.9999 11.1108H9.99992C9.33325 11.1108 8.88881 10.6663 8.88881 9.99967C8.88881 9.33301 9.33325 8.88856 9.99992 8.88856H16.6666C16.7777 8.88856 16.9999 8.88856 17.111 8.99967C17.2221 8.99967 17.3333 9.11079 17.4444 9.2219C17.5555 9.33301 17.5555 9.44412 17.6666 9.55523C17.7777 9.66634 17.7777 9.88856 17.7777 9.99967V16.6663C17.7777 17.333 17.3333 17.7775 16.6666 17.7775C15.9999 17.7775 15.5555 17.333 15.5555 16.6663V12.6663L6.33325 21.8886C6.11103 22.1108 5.88881 22.2219 5.55548 22.2219Z" fill="#02000F"/>
</svg>
