<svg width="49" height="48" viewBox="0 0 49 48" fill="none" xmlns="http://www.w3.org/2000/svg">
<path d="M19.7726 28.6945C19.7726 27.6088 18.8927 26.7285 17.8066 26.7285C17.4982 26.7285 17.2076 26.8015 16.9479 26.9281C16.1303 27.0782 14.9513 27.2116 14.4873 26.8532C14.4873 26.8532 15.0021 27.7239 15.9597 28.0262C15.8841 28.235 15.8407 28.4594 15.8407 28.6944C15.8407 29.7802 16.7207 30.6604 17.8066 30.6604C18.8926 30.6606 19.7726 29.7804 19.7726 28.6945Z" fill="#02000F"/>
<path d="M28.8774 37.543C28.7874 37.5859 28.6902 37.6335 28.5862 37.6841C27.7772 38.079 26.5158 38.6928 25.1001 38.8917V36.0432C25.7403 35.6334 26.4343 35.0255 26.4343 34.3139C26.4343 32.9938 25.3639 33.0894 24.044 33.0894C22.724 33.0894 21.654 32.9938 21.654 34.3139C21.654 35.0521 22.4012 35.6793 23.0601 36.0888V38.8507C21.7496 38.6185 20.5906 38.055 19.831 37.6842C19.7272 37.6335 19.6302 37.5862 19.5403 37.5431C19.0321 37.3003 18.4231 37.5153 18.1801 38.0233C17.9371 38.5315 18.1521 39.1407 18.6603 39.3837C18.7456 39.4245 18.8378 39.4695 18.9363 39.5175C20.0704 40.0709 21.9686 40.9973 24.2086 40.9973C26.4487 40.9973 28.3468 40.071 29.4811 39.5176C29.5797 39.4695 29.672 39.4245 29.7573 39.3837C30.2655 39.1407 30.4806 38.5317 30.2377 38.0235C29.9944 37.5153 29.3857 37.3001 28.8774 37.543Z" fill="#02000F"/>
<path d="M45.6078 38.2853L40.1248 37.7021C40.4072 37.0374 40.6368 36.3445 40.815 35.6269L45.392 36.1139C45.4287 36.1177 45.4651 36.1198 45.5012 36.1198C46.016 36.1198 46.4586 35.7311 46.5141 35.2075C46.5738 34.6474 46.1679 34.1449 45.6078 34.0853L41.1698 33.6131C41.2324 33.0322 41.2651 32.4382 41.2651 31.8311C41.2651 29.9392 40.0713 15.5849 40.0213 14.9853L39.4334 6.92029C39.4177 4.05613 37.641 1.02745 34.3609 1.02745C32.6824 1.02745 29.8682 2.10793 29.8609 9.33589L29.4255 17.4828C27.7432 16.9421 25.9777 16.661 24.1911 16.661C22.3306 16.661 20.4985 16.9638 18.7588 17.5469L18.3199 9.33205C18.3127 2.10061 15.4983 1.01953 13.8199 1.01953C10.5409 1.01953 8.7356 4.04209 8.71856 6.90145L8.05988 14.9482C8.05988 14.9496 8.05988 14.9511 8.05988 14.9526C8.05988 14.9542 8.08808 14.9555 8.08796 14.9569C8.04512 15.5724 7.05224 30.0499 7.05224 31.8153C7.05224 32.4523 7.09544 33.0749 7.16444 33.6832L3.38852 34.0853C2.82836 34.1448 2.42432 34.6474 2.48384 35.2075C2.53952 35.731 2.98292 36.1198 3.49784 36.1198C3.53384 36.1198 3.57068 36.1177 3.6074 36.1139L7.53752 35.6958C7.72016 36.4133 7.95536 37.1052 8.2424 37.7694L3.392 38.2854C2.83184 38.3449 2.42612 38.8475 2.48564 39.4076C2.54132 39.9311 2.98376 40.3199 3.49868 40.3199C3.53468 40.3199 3.57116 40.3179 3.60776 40.314L9.27836 39.7108C10.0455 40.8981 11.007 41.9699 12.1555 42.9092C15.2184 45.4146 19.4838 46.7943 24.1658 46.7943C28.849 46.7943 33.1141 45.4175 36.1755 42.9178C37.3491 41.9594 38.3269 40.862 39.1021 39.6449L45.392 40.314C45.4287 40.3179 45.4651 40.3199 45.5012 40.3199C46.016 40.3199 46.4586 39.9312 46.5141 39.4076C46.5738 38.8473 46.1679 38.3448 45.6078 38.2853ZM24.1658 44.754C19.3112 44.754 14.4291 43.0751 11.5908 39.4645L14.8878 39.1138C15.4479 39.0542 15.8538 38.5517 15.7941 37.9915C15.7346 37.4314 15.2319 37.026 14.672 37.0852L10.3738 37.5425C10.0537 36.8999 9.7886 36.2117 9.5846 35.4779L14.8878 34.9138C15.4479 34.8543 15.8538 34.3517 15.7941 33.7915C15.7346 33.2315 15.2319 32.8263 14.672 32.8852L9.1976 33.4677C9.13784 32.9367 9.10664 32.3861 9.10664 31.8151C9.10664 30.4593 9.78992 20.2932 10.1516 15.103L10.7841 7.02241C10.7862 6.99589 10.7872 6.96937 10.7872 6.94273C10.7872 5.86261 11.332 3.05941 13.8199 3.05941C16.1024 3.05941 16.2799 7.88149 16.2799 9.35941C16.2799 9.37753 16.2804 9.39565 16.2813 9.41389L16.7593 18.3605C16.2034 18.6294 15.6606 18.9283 15.1341 19.2585C14.6568 19.5576 14.5124 20.1871 14.8117 20.6644C15.0054 20.9733 15.3373 21.1427 15.6769 21.1427C15.8619 21.1427 16.0494 21.0924 16.2176 20.9868C18.6031 19.4914 21.3602 18.7009 24.1909 18.7009C26.8984 18.7009 29.5526 19.4285 31.8662 20.8049C32.3502 21.093 32.9763 20.934 33.2642 20.4499C33.5522 19.9657 33.3933 19.3398 32.9091 19.0518C32.4272 18.7651 31.9321 18.5038 31.4264 18.2671L31.8992 9.41785C31.9002 9.39973 31.9006 9.38161 31.9006 9.36337C31.9006 7.72405 32.0678 6.29281 32.3838 5.22421C33.0216 3.06733 34.0294 3.06733 34.3606 3.06733C36.8485 3.06733 37.3933 5.87629 37.3933 6.95869C37.3933 6.98341 37.3942 7.00813 37.3959 7.03285L37.9873 15.144C38.4153 20.2831 39.2248 30.3844 39.2248 31.831C39.2248 32.3712 39.1966 32.8931 39.1428 33.3973L34.3275 32.885C33.7674 32.8261 33.2649 33.2313 33.2053 33.7914C33.1456 34.3516 33.5515 34.854 34.1116 34.9137L38.7691 35.4091C38.5702 36.1433 38.3097 36.8316 37.9947 37.4753L34.3275 37.0852C33.7674 37.026 33.2649 37.4313 33.2053 37.9915C33.1456 38.5517 33.5515 39.0541 34.1116 39.1138L36.7968 39.3995C33.9673 43.055 29.0524 44.754 24.1658 44.754Z" fill="#02000F"/>
<path d="M33.8121 26.8532C33.3481 27.2116 32.1692 27.0782 31.3515 26.9281C31.0919 26.8015 30.8012 26.7285 30.4928 26.7285C29.4067 26.7285 28.5269 27.6088 28.5269 28.6945C28.5269 29.7804 29.4067 30.6606 30.4928 30.6606C31.5787 30.6606 32.4588 29.7804 32.4588 28.6945C32.4588 28.4595 32.4155 28.2351 32.3399 28.0263C33.2973 27.7239 33.8121 26.8532 33.8121 26.8532Z" fill="#02000F"/>
</svg>
