<svg width="30" height="24" viewBox="0 0 30 24" fill="none" xmlns="http://www.w3.org/2000/svg">
<g clip-path="url(#clip0_2570_3615)">
<path d="M22.2228 23.9999C21.4819 23.9999 20.7478 23.8165 20.0825 23.4547C19.0579 22.8996 18.3187 21.9893 18.0007 20.894C17.705 19.8804 17.803 18.8201 18.274 17.8799L8.09352 12.355C6.85233 14.2372 4.28744 14.8807 2.24858 13.7754C0.132373 12.6267 -0.624031 10.026 0.55871 7.97544C1.19134 6.88013 2.28812 6.12659 3.52588 5.88319C3.05828 4.69953 3.1408 3.35249 3.79577 2.21717C4.99914 0.131591 7.72907 -0.615283 9.87967 0.551707C10.9214 1.11686 11.6744 2.04212 11.9976 3.15576C12.3053 4.21106 12.1936 5.31803 11.6847 6.28997L21.7277 11.7398C22.3156 10.8112 23.2302 10.1394 24.3184 9.84095C25.4667 9.52587 26.6735 9.66424 27.7153 10.2294C29.8659 11.3964 30.6361 14.0421 29.4327 16.1277C28.7777 17.263 27.6362 18.0366 26.3521 18.2683C26.7853 19.4186 26.6976 20.719 26.065 21.8143C25.4925 22.8079 24.5539 23.5248 23.4244 23.8348C23.0273 23.9449 22.6234 23.9999 22.2228 23.9999ZM7.44542 10.4211L20.3112 17.4031L19.8367 18.0332C19.7542 18.1416 19.6923 18.2366 19.6373 18.33C19.2505 19.0002 19.1559 19.7787 19.3708 20.5189C19.5857 21.2591 20.086 21.8743 20.7788 22.2494C21.4716 22.6245 22.2727 22.7162 23.0359 22.5078C23.7992 22.2994 24.4336 21.8143 24.8204 21.1424C25.3825 20.1688 25.3069 18.9535 24.6295 18.0466L23.715 16.8229L25.269 16.9529C26.4604 17.053 27.607 16.4661 28.1898 15.4558C29.0098 14.0355 28.4838 12.2333 27.0191 11.4381C26.3091 11.053 25.4874 10.9596 24.7052 11.173C23.923 11.3881 23.2732 11.8849 22.8761 12.5734C22.8159 12.6784 22.7592 12.7984 22.6973 12.9502L22.3999 13.6904L9.62008 6.75176L10.1152 6.11992C10.2166 5.99155 10.2923 5.88152 10.3524 5.77482C10.7495 5.0863 10.8475 4.28941 10.6258 3.53087C10.4057 2.77232 9.8917 2.14215 9.18171 1.75704C7.71704 0.961821 5.85697 1.47196 5.03696 2.89236C4.45419 3.90264 4.53842 5.15632 5.25013 6.08991L6.17673 7.30525L4.62266 7.18855C3.46914 7.10186 2.36376 7.67535 1.80162 8.65062C1.00224 10.036 1.51453 11.7932 2.9431 12.57C4.37167 13.3453 6.18532 12.8485 6.9847 11.4631C7.038 11.3714 7.08785 11.2663 7.14114 11.143L7.44542 10.4211Z" fill="white"/>
<path d="M19.8588 14.5404C19.7711 14.5404 19.68 14.5187 19.5975 14.4737L12.9704 10.866C12.7125 10.726 12.6214 10.4092 12.7658 10.1608C12.9102 9.91078 13.2351 9.82242 13.493 9.96246L20.1201 13.5718C20.378 13.7118 20.4691 14.0286 20.3247 14.277C20.2267 14.4454 20.0462 14.5404 19.8588 14.5404Z" fill="white"/>
</g>
<defs>
<clipPath id="clip0_2570_3615">
<rect width="30" height="24" fill="white"/>
</clipPath>
</defs>
</svg>
