<svg width="252" height="252" viewBox="0 0 252 252" fill="none" xmlns="http://www.w3.org/2000/svg">
<path d="M124.838 49.8081C124.838 49.8081 9.34277 67.4095 9.34277 146.04C9.34277 146.04 15.4637 239.918 123.963 239.918C123.963 239.918 241.207 222.317 241.207 147.204C241.207 147.216 230.702 49.8081 124.838 49.8081Z" fill="white"/>
<path d="M126 252C93.1435 252 62.1196 241.422 38.6421 222.208C13.7272 201.816 0 174.049 0 144.026C0 114.003 13.7272 86.2363 38.6421 65.8449C62.1196 46.6301 93.1435 36.0522 126 36.0522C158.857 36.0522 189.88 46.6301 213.358 65.8449C238.273 86.2363 252 114.003 252 144.026C252 174.061 238.273 201.816 213.358 222.208C189.868 241.422 158.845 252 126 252ZM126 61.0897C96.5333 61.0897 68.9592 70.3696 48.3685 87.2189C29.2151 102.892 18.6742 123.065 18.6742 144.026C18.6742 164.988 29.2151 185.161 48.3685 200.834C68.9592 217.683 96.5333 226.963 126 226.963C155.467 226.963 183.041 217.683 203.632 200.834C222.785 185.161 233.326 164.988 233.326 144.026C233.326 123.065 222.785 102.892 203.632 87.2189C183.041 70.3696 155.467 61.0897 126 61.0897Z" fill="#F9DF8A"/>
<path opacity="0.2" d="M207.141 55.5945L206.722 55.0971L165.936 5.91988L165.972 6.04119L165.864 5.91988L162.977 6.64772L162.821 5.91988L126.299 15.7699L126.072 15.8305L125.832 15.7577L87.0464 4.59766L86.9146 5.38613L83.9919 4.59766L83.908 4.71893L83.932 4.59766L45.0024 55.5945L63.4371 91.1734L66.3837 78.7274L83.3211 97.0688H85.5371H125.365H126.072H126.766H166.606H168.81L186.682 77.7327L189.916 88.9656L207.141 55.5945Z" fill="#414042"/>
<path d="M83.9919 0L45.0024 50.9847L83.3211 92.4712H126.072V11.2208L83.9919 0Z" fill="#FAF0DD"/>
<path d="M165.864 1.32227L126.072 11.2208V92.4712H168.81L207.141 50.9847L165.864 1.32227Z" fill="#FAF0DD"/>
<path d="M83.932 0L63.4371 86.5757L45.0024 50.9847L83.932 0Z" fill="#F9DF8A"/>
<path d="M165.936 1.32227L189.916 84.368L207.141 50.9847L165.936 1.32227Z" fill="#F9DF8A"/>
<path d="M85.5371 92.4713L126.707 56.6982L166.606 92.4713H85.5371Z" fill="#F3E2D0"/>
<path d="M165.073 44.0944C169.589 57.4865 156.041 62.5692 147.273 62.5692C138.505 62.5692 131.402 53.9687 131.402 43.3544C131.402 32.7402 138.505 24.1396 147.273 24.1396C156.041 24.1396 158.581 24.8311 165.073 44.0944Z" fill="#F9DF8A"/>
<path d="M152.951 41.7412C152.951 44.7739 150.831 47.2364 148.219 47.2364C145.608 47.2364 143.5 44.7739 143.5 41.7412C143.5 38.7086 145.62 36.2461 148.219 36.2461C150.831 36.2461 152.951 38.7086 152.951 41.7412Z" fill="#573D26"/>
<path d="M113.255 41.7412C113.255 44.7739 111.134 47.2364 108.523 47.2364C105.912 47.2364 103.804 44.7739 103.804 41.7412C103.804 38.7086 105.924 36.2461 108.523 36.2461C111.134 36.2461 113.255 38.7086 113.255 41.7412Z" fill="#573D26"/>
<path d="M118.417 63.8916C118.417 63.8916 121.819 66.2692 127.102 66.2692C132.384 66.2692 134.696 63.8552 134.696 63.8552L126.706 56.686L118.417 63.8916Z" fill="#573D26"/>
<path d="M126.707 63.8911C126.707 63.8911 130.372 82.0141 112.968 82.8875" stroke="#573D26" stroke-width="0.7283" stroke-miterlimit="10"/>
<path d="M127.341 64.2437C127.341 64.2437 123.676 82.3667 141.08 83.2401" stroke="#573D26" stroke-width="0.7283" stroke-miterlimit="10"/>
<path d="M151.561 39.3879C151.561 40.1885 151.01 40.8314 150.316 40.8314C149.633 40.8314 149.07 40.1885 149.07 39.3879C149.07 38.5873 149.621 37.9443 150.316 37.9443C151.01 37.9443 151.561 38.5873 151.561 39.3879Z" fill="white"/>
<path d="M112.021 39.3879C112.021 40.1885 111.47 40.8314 110.776 40.8314C110.093 40.8314 109.53 40.1885 109.53 39.3879C109.53 38.5873 110.081 37.9443 110.776 37.9443C111.458 37.9443 112.021 38.5873 112.021 39.3879Z" fill="white"/>
<path d="M62.1749 161.172C68.4692 160.499 75.3123 154.054 77.0153 145.92C78.7183 137.786 74.8163 138.74 74.8163 138.74C74.8163 138.74 72.0168 149.868 66.7672 154.334C63.6009 157.028 58.3575 157.909 59.1315 150.5C59.9055 143.092 66.2516 132.627 74.0423 127.704C81.8319 122.783 91.893 125.942 94.5757 129.828C97.2583 133.713 95.0924 135.616 95.0924 135.616C89.6227 135.963 90.7583 138.895 92.203 141.071C93.6477 143.247 97.5694 147.753 99.7354 145.888C101.902 144.023 102.986 140.396 102.986 140.396C107.65 147.976 101.078 154.695 101.078 154.695C101.233 150.395 98.2917 149.41 98.2917 149.41C97.0021 152.57 92.049 156.094 85.857 155.161C79.6649 154.229 77.8596 149.359 77.8596 149.359C73.0285 157.747 79.2257 165.72 84.7792 166.417C89.1597 166.967 89.7074 168.827 90.4235 171.492C91.0487 173.822 92.1451 177.19 95.6049 179.148C98.5955 180.838 106.082 180.599 107.629 172.932C109.177 165.264 103.128 158.656 103.128 158.656C108.605 156.971 111.317 147.809 108.61 141.173C105.645 133.906 99.9937 135.682 99.9937 135.682C101.494 125.435 92.5719 119.58 80.999 120.023C70.3128 120.433 59.0024 130.935 55.2543 143.873C51.8162 155.739 55.8805 161.846 62.1749 161.172ZM103.26 167.039C105.04 172.686 101.928 175.237 99.1939 175.47C96.4606 175.704 95.5274 173.398 94.1943 169.29C92.946 165.438 91.7762 164.799 91.7762 164.799C91.7762 164.799 90.9815 163.535 88.025 163.556C86.8604 163.564 86.167 162.856 86.632 161.974C87.096 161.095 89.573 158.97 93.1578 158.893C96.7416 158.815 101.48 161.392 103.26 167.039Z" fill="#372121"/>
<path d="M83.2525 178.461C83.2525 178.461 79.5457 170.255 75.035 168.28C70.5242 166.306 67.9852 166.832 66.4248 166.788C64.8644 166.743 62.5837 164.274 66.4661 162.199C70.3486 160.125 79.4372 163.652 83.0323 169.292C86.6275 174.931 85.838 177.629 83.2525 178.461Z" fill="#372121"/>
<path d="M86.168 135.485C86.5855 137.851 85.5169 140.021 83.7808 140.33C82.0448 140.639 80.2983 138.972 79.8808 136.605C79.4634 134.238 80.5319 132.069 82.2669 131.76C84.0041 131.451 85.7515 133.119 86.168 135.485Z" fill="#372121"/>
<path d="M175.887 158.78C175.258 160.344 174.134 161.626 172.447 162.698C170.731 163.79 169.055 164.32 167.322 164.32C166.736 164.32 166.126 164.263 165.509 164.151C162.628 163.58 160.659 162.072 159.52 159.557L181.531 153.542L181.263 152.028C180.742 149.083 179.406 146.513 177.292 144.39C175.183 142.272 172.629 140.915 169.692 140.355C167.67 139.987 165.633 140.025 163.649 140.468L163.628 140.473C160.505 141.211 157.882 142.742 155.831 145.023C153.778 147.309 152.549 150.044 152.179 153.156C152.037 154.268 152.016 155.274 152.118 156.148C152.132 157.924 152.511 159.682 153.241 161.366C154.394 164.056 156.257 166.222 158.78 167.804C161.276 169.372 164.133 170.167 167.271 170.167C170.351 170.167 173.197 169.333 175.732 167.692C178.278 166.044 180.185 163.764 181.399 160.917L182.108 159.257L176.483 157.296L175.887 158.78ZM158.432 153.974C158.571 150.57 160.08 148.187 163.05 146.682C164.303 146.039 165.603 145.726 167.026 145.726C168.868 145.726 170.429 146.244 171.802 147.309C172.704 148.007 173.405 148.804 173.923 149.718L158.432 153.974Z" fill="#372121"/>
<path d="M193.718 164.356C190.699 164.329 190.037 163.122 189.979 161.265L189.934 146.123H196.117L198 140.575H189.929V131.867L183.713 134.558V140.575H181.077L180.074 146.123H183.713V158.617C183.713 162.533 184.372 165.313 185.73 167.117C187.177 169.041 189.57 170.016 192.843 170.016C193.908 170.016 194.922 169.944 195.862 169.798L197.285 169.58V163.913C197.286 163.912 194.639 164.364 193.718 164.356Z" fill="#372121"/>
<path d="M140.485 130.561H129.506H124.451H122.796V136.281H129.327H139.655C143.573 136.281 146.748 139.469 146.748 143.402C146.748 147.336 143.573 150.524 139.655 150.524H129.327H122.796V169.62H129.506V156.542H140.485C147.63 156.542 153.422 150.726 153.422 143.553C153.422 136.377 147.63 130.561 140.485 130.561Z" fill="#372121"/>
</svg>
