<svg width="252" height="252" viewBox="0 0 252 252" fill="none" xmlns="http://www.w3.org/2000/svg">
<path d="M124.838 49.8081C124.838 49.8081 9.34277 67.4095 9.34277 146.04C9.34277 146.04 15.4637 239.918 123.963 239.918C123.963 239.918 241.207 222.317 241.207 147.204C241.207 147.216 230.702 49.8081 124.838 49.8081Z" fill="white"/>
<path d="M126 252C93.1435 252 62.1196 241.422 38.6421 222.208C13.7272 201.816 0 174.049 0 144.026C0 114.003 13.7272 86.2363 38.6421 65.8449C62.1196 46.6301 93.1435 36.0522 126 36.0522C158.857 36.0522 189.88 46.6301 213.358 65.8449C238.273 86.2363 252 114.003 252 144.026C252 174.061 238.273 201.816 213.358 222.208C189.868 241.422 158.845 252 126 252ZM126 61.0897C96.5333 61.0897 68.9592 70.3696 48.3685 87.2189C29.2151 102.892 18.6742 123.065 18.6742 144.026C18.6742 164.988 29.2151 185.161 48.3685 200.834C68.9592 217.683 96.5333 226.963 126 226.963C155.467 226.963 183.041 217.683 203.632 200.834C222.785 185.161 233.326 164.988 233.326 144.026C233.326 123.065 222.785 102.892 203.632 87.2189C183.041 70.3696 155.467 61.0897 126 61.0897Z" fill="#E5C4A5"/>
<path opacity="0.2" d="M207.141 52.4685L206.722 51.9712L165.936 2.7939L165.972 2.91522L165.864 2.7939L162.977 3.52175L162.821 2.7939L126.299 12.6439L126.072 12.7045L125.832 12.6318L87.0464 1.47168L86.9146 2.26016L83.9919 1.47168L83.908 1.59296L83.932 1.47168L45.0024 52.4685L63.4371 88.0474L66.3837 75.6014L83.3211 93.9428H85.5371H125.365H126.072H126.766H166.606H168.81L186.682 74.6067L189.916 85.8396L207.141 52.4685Z" fill="#414042"/>
<path d="M83.9919 0L45.0024 50.9847L83.3211 92.4712H126.072V11.2208L83.9919 0Z" fill="#FAF0DD"/>
<path d="M165.864 1.32227L126.072 11.2208V92.4712H168.81L207.141 50.9847L165.864 1.32227Z" fill="#FAF0DD"/>
<path d="M83.932 0L63.4371 86.5757L45.0024 50.9847L83.932 0Z" fill="#E5C4A5"/>
<path d="M165.936 1.32227L189.916 84.368L207.141 50.9847L165.936 1.32227Z" fill="#E5C4A5"/>
<path d="M85.5371 92.4713L126.707 56.6982L166.606 92.4713H85.5371Z" fill="#F3E2D0"/>
<path d="M165.073 44.0944C169.589 57.4865 156.041 62.5692 147.273 62.5692C138.505 62.5692 131.402 53.9687 131.402 43.3544C131.402 32.7402 138.505 24.1396 147.273 24.1396C156.041 24.1396 158.581 24.8311 165.073 44.0944Z" fill="#E5C4A5"/>
<path d="M152.951 41.7412C152.951 44.7739 150.831 47.2364 148.219 47.2364C145.608 47.2364 143.5 44.7739 143.5 41.7412C143.5 38.7086 145.62 36.2461 148.219 36.2461C150.831 36.2461 152.951 38.7086 152.951 41.7412Z" fill="#573D26"/>
<path d="M113.255 41.7412C113.255 44.7739 111.134 47.2364 108.523 47.2364C105.912 47.2364 103.804 44.7739 103.804 41.7412C103.804 38.7086 105.924 36.2461 108.523 36.2461C111.134 36.2461 113.255 38.7086 113.255 41.7412Z" fill="#573D26"/>
<path d="M118.417 63.8916C118.417 63.8916 121.819 66.2692 127.102 66.2692C132.384 66.2692 134.696 63.8552 134.696 63.8552L126.706 56.686L118.417 63.8916Z" fill="#573D26"/>
<path d="M126.707 63.8911C126.707 63.8911 130.372 82.0141 112.968 82.8875" stroke="#573D26" stroke-width="0.7283" stroke-miterlimit="10"/>
<path d="M127.341 64.2437C127.341 64.2437 123.676 82.3667 141.08 83.2401" stroke="#573D26" stroke-width="0.7283" stroke-miterlimit="10"/>
<path d="M151.561 39.3879C151.561 40.1885 151.01 40.8314 150.316 40.8314C149.633 40.8314 149.07 40.1885 149.07 39.3879C149.07 38.5873 149.621 37.9443 150.316 37.9443C151.01 37.9443 151.561 38.5873 151.561 39.3879Z" fill="white"/>
<path d="M112.021 39.3879C112.021 40.1885 111.47 40.8314 110.776 40.8314C110.093 40.8314 109.53 40.1885 109.53 39.3879C109.53 38.5873 110.081 37.9443 110.776 37.9443C111.458 37.9443 112.021 38.5873 112.021 39.3879Z" fill="white"/>
<path d="M68.7672 187.62C69.0141 188.083 69.4164 188.432 70.0901 188.432C70.766 188.432 71.3626 187.826 71.3626 187.155C71.3626 186.213 70.5582 185.85 69.8443 185.554C68.4946 184.986 67.4433 184.393 67.4433 182.805C67.4433 181.204 68.6242 180.042 70.194 180.042C71.1548 180.042 72.1402 180.584 72.5436 181.5L71.1805 182.16C70.9727 181.732 70.5191 181.552 70.1426 181.552C69.5069 181.552 68.9605 182.12 68.9605 182.728C68.9605 183.488 69.4801 183.734 70.1035 184.044C72.0364 184.882 72.8531 185.489 72.8531 187.154C72.8531 188.688 71.6084 189.916 70.1158 189.916H70.0644C68.7147 189.916 67.7148 189.051 67.4556 188.03C67.898 187.905 68.3259 187.763 68.7672 187.62Z" fill="#372121"/>
<path d="M79.2526 180.135H80.7587V189.813H79.2526V185.799C79.2526 185.749 79.2269 185.723 79.1744 185.723H75.6316C75.5657 185.723 75.5534 185.762 75.5534 185.799V189.813H74.0484V180.135H75.5534V184.135C75.5534 184.187 75.5791 184.213 75.6316 184.213H79.1744C79.2269 184.213 79.2526 184.187 79.2526 184.135V180.135Z" fill="#372121"/>
<path d="M86.9345 180.031C89.6852 180.031 91.9052 182.238 91.9052 184.974C91.9052 187.71 89.6852 189.918 86.9345 189.918C84.1827 189.918 81.965 187.71 81.965 184.974C81.965 182.238 84.1827 180.031 86.9345 180.031ZM86.9345 188.419C88.8417 188.419 90.3868 186.871 90.3868 184.974C90.3868 183.076 88.8428 181.541 86.9345 181.541C85.0274 181.541 83.471 183.077 83.471 184.974C83.471 186.871 85.0274 188.419 86.9345 188.419Z" fill="#372121"/>
<path d="M93.0985 180.135H95.6817C97.343 180.135 98.5105 181.399 98.5105 183.037C98.5105 184.676 97.3419 186.006 95.6817 186.006H94.6951C94.6437 186.006 94.6169 186.032 94.6169 186.083V189.812H93.0985V180.135ZM94.6169 184.432C94.6169 184.484 94.6426 184.509 94.7074 184.509H95.5107C96.7062 184.509 96.9922 183.606 96.9922 183.038C96.9922 182.471 96.7062 181.631 95.5107 181.631H94.7074C94.6426 181.631 94.6169 181.671 94.6169 181.735V184.432Z" fill="#372121"/>
<path d="M109.645 186.562C109.618 186.601 109.593 186.638 109.58 186.691C109.605 186.73 109.618 186.756 109.657 186.795L111.708 188.769L110.722 189.814C110.099 189.208 109.371 188.511 108.879 188.021L108.775 188.227C108.1 189.48 107.165 189.919 106.179 189.919C104.597 189.919 103.273 188.692 103.273 187.105C103.273 186.034 103.909 185.065 105.117 184.278C104.454 183.711 103.974 183.103 103.974 182.214C103.974 181.014 104.973 180.032 106.271 180.032C107.439 180.032 108.452 181.028 108.452 182.214C108.452 183.129 108.05 183.838 107.245 184.432L108.491 185.671L109.529 183.698L110.8 184.342L109.645 186.562ZM106.167 188.511C106.919 188.511 107.399 187.852 107.673 187.271C107.751 187.143 107.789 187.013 107.789 186.988C107.217 186.433 106.634 185.878 106.063 185.31C105.414 185.684 104.7 186.278 104.7 187.052C104.7 187.852 105.336 188.511 106.167 188.511ZM106.283 183.464C106.479 183.439 107.036 182.936 107.036 182.265C107.036 181.826 106.66 181.464 106.232 181.464C105.765 181.464 105.388 181.773 105.388 182.226C105.387 182.624 105.738 183.077 106.283 183.464Z" fill="#372121"/>
<path d="M117.782 187.62C118.029 188.083 118.43 188.432 119.105 188.432C119.78 188.432 120.377 187.826 120.377 187.155C120.377 186.213 119.573 185.85 118.858 185.554C117.509 184.986 116.458 184.393 116.458 182.805C116.458 181.204 117.639 180.042 119.209 180.042C120.17 180.042 121.155 180.584 121.558 181.5L120.195 182.16C119.987 181.732 119.532 181.552 119.157 181.552C118.52 181.552 117.975 182.12 117.975 182.728C117.975 183.488 118.495 183.734 119.118 184.044C121.051 184.882 121.868 185.489 121.868 187.154C121.868 188.688 120.622 189.916 119.131 189.916H119.078C117.729 189.916 116.73 189.051 116.47 188.03C116.912 187.905 117.341 187.763 117.782 187.62Z" fill="#372121"/>
<path d="M129.486 189.813C129.331 189.386 128.786 187.826 128.629 187.826H125.101C125.036 187.826 124.997 187.85 124.984 187.903L124.257 189.813H122.647L126.294 180.135H127.423L131.095 189.813H129.486ZM126.841 182.883L125.594 186.291C125.582 186.303 125.582 186.317 125.582 186.341C125.582 186.367 125.594 186.393 125.634 186.393H128.087C128.14 186.393 128.165 186.367 128.165 186.329C128.165 186.317 128.152 186.303 128.152 186.291L126.907 182.883C126.88 182.859 126.894 182.833 126.868 182.833C126.853 182.833 126.841 182.844 126.841 182.883Z" fill="#372121"/>
<path d="M136.884 188.318V189.814H131.928V180.136H133.433V188.202C133.433 188.279 133.473 188.319 133.549 188.319H136.884V188.318Z" fill="#372121"/>
<path d="M142.995 180.031C145.747 180.031 147.966 182.238 147.966 184.974C147.966 187.71 145.747 189.918 142.995 189.918C140.246 189.918 138.027 187.71 138.027 184.974C138.027 182.238 140.246 180.031 142.995 180.031ZM142.995 188.419C144.904 188.419 146.448 186.871 146.448 184.974C146.448 183.076 144.904 181.541 142.995 181.541C141.088 181.541 139.532 183.077 139.532 184.974C139.532 186.871 141.088 188.419 142.995 188.419Z" fill="#372121"/>
<path d="M150.745 180.149C152.108 182.303 153.482 184.459 154.845 186.626C154.961 186.808 155.078 186.988 155.209 187.156V180.149H156.728V189.814H155.131L151.056 183.362C150.94 183.181 150.797 183.014 150.679 182.833C150.679 183.077 150.666 183.336 150.666 183.607V189.813H149.161V180.147H150.745V180.149Z" fill="#372121"/>
<path d="M89.2774 164.285C83.7492 168.751 75.9284 164.264 75.7608 157.608C75.5888 150.761 84.0263 146.646 89.3344 150.98C91.3969 152.663 94.209 153.014 96.2335 150.98C97.9674 149.238 98.3004 145.735 96.2335 144.047C90.2371 139.151 82.9649 138.173 75.9284 141.369C69.7444 144.179 66.1714 151.025 66.0049 157.608C65.8396 164.185 69.7958 170.338 75.3575 173.552C82.1527 177.479 90.2874 175.974 96.1765 171.217C98.2512 169.541 97.9026 166.021 96.1765 164.285C94.1453 162.243 91.3477 162.612 89.2774 164.285Z" fill="#372121"/>
<path d="M128.022 139.519C126.229 139.519 124.644 140.353 123.681 141.629C121.209 140.335 118.402 139.6 115.422 139.6C105.525 139.6 97.5018 147.662 97.5018 157.608C97.5018 167.552 105.525 175.615 115.422 175.615C118.379 175.615 121.166 174.891 123.624 173.615C124.582 174.932 126.194 175.797 128.022 175.797C130.96 175.797 133.341 173.566 133.341 170.813V144.502C133.341 141.75 130.96 139.519 128.022 139.519ZM115.422 164.936C111.394 164.936 108.128 161.656 108.128 157.608C108.128 153.56 111.393 150.28 115.422 150.28C119.37 150.28 122.578 153.435 122.703 157.371V157.845C122.578 161.781 119.37 164.936 115.422 164.936Z" fill="#372121"/>
<path d="M181.279 114.456C176.871 109.722 170.047 108.738 164.318 111.291C158.865 113.72 156.229 120.922 159.015 126.215C159.419 126.984 159.925 127.692 160.483 128.355C161.037 129.032 163.11 130.707 165.406 130.624C169.452 130.481 171.817 127.954 171.817 124.436C171.817 122.544 170.993 120.849 169.689 119.682C169.865 119.636 170.041 119.6 170.214 119.59C173.457 119.383 175.58 122.189 176.284 125.24C177.073 128.663 174.696 132.878 172.64 134.538C170.167 136.532 164.592 138.386 159.739 138.54C158.389 138.582 157.039 138.54 155.688 138.54V134.23C155.688 131.476 153.34 129.247 150.441 129.247C147.543 129.247 145.193 131.478 145.193 134.23V138.54C143.27 138.54 141.348 138.54 139.428 138.54C133.137 138.54 133.137 148.345 139.428 148.345C141.326 148.345 143.251 148.388 145.193 148.435V170.813C145.193 173.565 147.541 175.797 150.441 175.797C153.34 175.797 155.688 173.566 155.688 170.813V148.544C162.094 148.394 168.422 147.623 174.253 144.963C185.709 139.739 190.198 124.035 181.279 114.456Z" fill="#372121"/>
</svg>
