<svg width="252" height="252" viewBox="0 0 252 252" fill="none" xmlns="http://www.w3.org/2000/svg">
<path d="M124.838 49.8081C124.838 49.8081 9.34277 67.4095 9.34277 146.04C9.34277 146.04 15.4637 239.918 123.963 239.918C123.963 239.918 241.207 222.317 241.207 147.204C241.207 147.216 230.702 49.8081 124.838 49.8081Z" fill="white"/>
<path d="M126 252C93.1435 252 62.1196 241.422 38.6421 222.208C13.7272 201.816 0 174.049 0 144.026C0 114.003 13.7272 86.2363 38.6421 65.8449C62.1196 46.6301 93.1435 36.0522 126 36.0522C158.857 36.0522 189.88 46.6301 213.358 65.8449C238.273 86.2363 252 114.003 252 144.026C252 174.061 238.273 201.816 213.358 222.208C189.868 241.422 158.845 252 126 252ZM126 61.0897C96.5333 61.0897 68.9592 70.3696 48.3685 87.2189C29.2151 102.892 18.6742 123.065 18.6742 144.026C18.6742 164.988 29.2151 185.161 48.3685 200.834C68.9592 217.683 96.5333 226.963 126 226.963C155.467 226.963 183.041 217.683 203.632 200.834C222.785 185.161 233.326 164.988 233.326 144.026C233.326 123.065 222.785 102.892 203.632 87.2189C183.041 70.3696 155.467 61.0897 126 61.0897Z" fill="#A9EDFC"/>
<path opacity="0.2" d="M207.141 55.5945L206.722 55.0971L165.936 5.91988L165.972 6.04119L165.864 5.91988L162.977 6.64772L162.821 5.91988L126.299 15.7699L126.072 15.8305L125.832 15.7577L87.0464 4.59766L86.9146 5.38613L83.9919 4.59766L83.908 4.71893L83.932 4.59766L45.0024 55.5945L63.4371 91.1734L66.3837 78.7274L83.3211 97.0688H85.5371H125.365H126.072H126.766H166.606H168.81L186.682 77.7327L189.916 88.9656L207.141 55.5945Z" fill="#414042"/>
<path d="M83.9919 0L45.0024 50.9847L83.3211 92.4712H126.072V11.2208L83.9919 0Z" fill="#FAF0DD"/>
<path d="M165.864 1.32227L126.072 11.2208V92.4712H168.81L207.141 50.9847L165.864 1.32227Z" fill="#FAF0DD"/>
<path d="M83.932 0L63.4371 86.5757L45.0024 50.9847L83.932 0Z" fill="#A9EDFC"/>
<path d="M165.936 1.32227L189.916 84.368L207.141 50.9847L165.936 1.32227Z" fill="#A9EDFC"/>
<path d="M85.5371 92.4713L126.707 56.6982L166.606 92.4713H85.5371Z" fill="#F3E2D0"/>
<path d="M165.073 44.0944C169.589 57.4865 156.041 62.5692 147.273 62.5692C138.505 62.5692 131.402 53.9687 131.402 43.3544C131.402 32.7402 138.505 24.1396 147.273 24.1396C156.041 24.1396 158.581 24.8311 165.073 44.0944Z" fill="#A9EDFC"/>
<path d="M152.951 41.7412C152.951 44.7739 150.831 47.2364 148.219 47.2364C145.608 47.2364 143.5 44.7739 143.5 41.7412C143.5 38.7086 145.62 36.2461 148.219 36.2461C150.831 36.2461 152.951 38.7086 152.951 41.7412Z" fill="#573D26"/>
<path d="M113.255 41.7412C113.255 44.7739 111.134 47.2364 108.523 47.2364C105.912 47.2364 103.804 44.7739 103.804 41.7412C103.804 38.7086 105.924 36.2461 108.523 36.2461C111.134 36.2461 113.255 38.7086 113.255 41.7412Z" fill="#573D26"/>
<path d="M118.417 63.8916C118.417 63.8916 121.819 66.2692 127.102 66.2692C132.384 66.2692 134.696 63.8552 134.696 63.8552L126.706 56.686L118.417 63.8916Z" fill="#573D26"/>
<path d="M126.707 63.8911C126.707 63.8911 130.372 82.0141 112.968 82.8875" stroke="#573D26" stroke-width="0.7283" stroke-miterlimit="10"/>
<path d="M127.341 64.2437C127.341 64.2437 123.676 82.3667 141.08 83.2401" stroke="#573D26" stroke-width="0.7283" stroke-miterlimit="10"/>
<path d="M151.561 39.3879C151.561 40.1885 151.01 40.8314 150.316 40.8314C149.633 40.8314 149.07 40.1885 149.07 39.3879C149.07 38.5873 149.621 37.9443 150.316 37.9443C151.01 37.9443 151.561 38.5873 151.561 39.3879Z" fill="white"/>
<path d="M112.021 39.3879C112.021 40.1885 111.47 40.8314 110.776 40.8314C110.093 40.8314 109.53 40.1885 109.53 39.3879C109.53 38.5873 110.081 37.9443 110.776 37.9443C111.458 37.9443 112.021 38.5873 112.021 39.3879Z" fill="white"/>
<path d="M93.934 133.476C93.934 142.101 93.934 150.728 93.934 159.353C93.934 160.626 94.0239 161.968 93.8295 163.23C93.217 167.209 90.0622 170.086 86.2129 170.852C82.2591 171.639 78.3941 169.279 76.561 165.879C75.6451 164.181 75.6023 162.317 75.6023 160.451C75.6023 151.459 75.6023 142.467 75.6023 133.477C75.6023 131.224 72.1116 131.224 72.1116 133.477C72.1116 142.102 72.1116 150.729 72.1116 159.354C72.1116 160.644 72.0644 161.943 72.206 163.227C72.633 167.119 74.8786 170.447 78.1198 172.565C85.0958 177.125 94.3218 173.06 96.8651 165.524C97.5743 163.418 97.4259 161.119 97.4259 158.928C97.4259 155.625 97.4259 152.323 97.4259 149.02C97.4259 143.84 97.4259 138.658 97.4259 133.477C97.4248 131.221 93.934 131.221 93.934 133.476Z" fill="#372121"/>
<path d="M115.757 133.476C115.757 142.101 115.757 150.728 115.757 159.353C115.757 160.626 115.848 161.968 115.653 163.23C115.041 167.209 111.885 170.086 108.038 170.852C104.084 171.639 100.218 169.279 98.3848 165.879C97.4688 164.181 97.4261 162.317 97.4261 160.451C97.4261 151.459 97.4261 142.467 97.4261 133.477C97.4261 131.224 93.9353 131.224 93.9353 133.477C93.9353 142.102 93.9353 150.729 93.9353 159.354C93.9353 160.644 93.8881 161.943 94.0297 163.227C94.4568 167.119 96.7023 170.447 99.9436 172.565C106.92 177.125 116.147 173.06 118.689 165.524C119.399 163.418 119.251 161.119 119.251 158.928C119.251 155.625 119.251 152.323 119.251 149.02C119.251 143.84 119.251 138.658 119.251 133.477C119.25 131.221 115.757 131.221 115.757 133.476Z" fill="#372121"/>
<path d="M72.1106 139.386C72.0814 140.736 71.4127 142.648 69.5403 142.648C67.2498 142.648 64.9594 142.648 62.6689 142.648C61.9945 142.648 61.3202 142.648 60.6448 142.648C60.7763 142.648 59.4119 142.796 60.3773 142.688C60.2795 142.698 60.1828 142.7 60.0851 142.702C59.5939 142.713 60.2593 142.765 59.9277 142.702C59.513 142.621 59.8468 142.769 59.649 142.579C59.7063 142.633 59.5231 142.28 59.4995 141.99C59.3545 140.265 60.1469 138.475 60.7437 136.902C62.7352 131.641 65.2212 126.486 68.9548 122.229C73.4166 117.141 80.1082 113.527 86.9886 113.527C89.8849 113.527 92.7822 113.527 95.6785 113.527C97.9296 113.527 97.9296 110.032 95.6785 110.032C90.7446 110.032 85.8119 109.744 80.9691 110.889C74.0898 112.516 68.4524 116.909 64.285 122.495C60.8875 127.047 58.4959 132.476 56.7033 137.844C55.8941 140.265 55.2962 143.857 57.7789 145.54C58.4318 145.983 59.1938 146.157 59.9716 146.197C60.2874 146.214 60.6077 146.155 60.9179 146.113C61.4573 146.038 60.3368 146.144 60.7965 146.144C63.7276 146.144 66.6587 146.144 69.5898 146.144C73.3098 146.144 75.5272 142.847 75.6014 139.387C75.6509 137.132 72.159 137.137 72.1106 139.386Z" fill="#372121"/>
<path d="M115.757 139.386C115.8 141.403 116.564 143.59 118.147 144.897C120.009 146.433 122.458 146.143 124.708 146.143C126.034 146.143 127.363 146.143 128.689 146.143C129.174 146.143 129.657 146.143 130.141 146.143C130.483 146.143 131.068 146.247 130.282 146.087C131.711 146.377 133.302 146.058 134.291 144.919C136.357 142.538 135.035 138.768 134.075 136.221C133.153 133.775 132.153 131.356 130.998 129.01C128.171 123.263 124.182 118.08 118.808 114.519C114.716 111.808 109.385 110.032 104.454 110.032C101.528 110.032 98.6038 110.032 95.6795 110.032C93.4272 110.032 93.4272 113.527 95.6795 113.527C100.611 113.527 105.553 113.185 110.362 114.498C116.985 116.304 122.133 121.028 125.734 126.729C127.229 129.098 128.477 131.633 129.553 134.218C130.514 136.525 132.357 139.791 131.806 142.31C131.744 142.594 131.557 142.698 131.687 142.611C131.727 142.583 131.173 142.728 131.507 142.697C131.321 142.715 130.588 142.637 131.302 142.735C131.083 142.704 130.866 142.65 130.645 142.65C128.354 142.65 126.064 142.65 123.774 142.65C122.783 142.65 121.201 142.909 120.376 142.229C119.532 141.532 119.266 140.209 119.25 139.389C119.2 137.137 115.709 137.132 115.757 139.386Z" fill="#372121"/>
<path d="M95.6795 148.152H91.3155C91.3155 148.152 86.5795 148.136 87.9978 152.608C89.569 157.561 94.3702 157.588 95.6795 157.588" fill="#372121"/>
<path d="M95.6795 148.152H100.044C100.044 148.152 104.78 148.136 103.36 152.608C101.789 157.561 96.9877 157.588 95.6784 157.588" fill="#372121"/>
<path d="M89.8602 138.805C89.8602 140.607 88.4025 142.067 86.6009 142.067C84.8005 142.067 83.3428 140.607 83.3428 138.805C83.3428 137.003 84.8005 135.543 86.6009 135.543C88.4025 135.543 89.8602 137.003 89.8602 138.805Z" fill="#372121"/>
<path d="M107.844 138.805C107.844 140.607 106.385 142.067 104.585 142.067C102.785 142.067 101.325 140.607 101.325 138.805C101.325 137.003 102.783 135.543 104.585 135.543C106.384 135.543 107.844 137.003 107.844 138.805Z" fill="#372121"/>
<path d="M144.331 161.364C144.228 166.673 140.392 171.338 134.904 171.459C129.416 171.58 125.577 166.49 125.477 161.364C125.374 156.054 129.57 151.386 134.904 151.269C140.392 151.148 144.231 156.237 144.331 161.364C144.375 163.615 147.867 163.618 147.823 161.364C147.682 154.129 142.311 147.936 134.903 147.774C127.496 147.612 122.121 154.378 121.983 161.364C121.842 168.598 127.707 174.796 134.903 174.953C142.31 175.116 147.685 168.35 147.823 161.364C147.867 159.109 144.375 159.113 144.331 161.364Z" fill="#372121"/>
<path d="M173.313 161.364C173.208 166.673 169.374 171.338 163.885 171.459C158.398 171.58 154.558 166.49 154.458 161.364C154.354 156.054 158.552 151.386 163.885 151.269C169.373 151.148 173.212 156.237 173.313 161.364C173.357 163.615 176.849 163.618 176.804 161.364C176.662 154.13 171.292 147.936 163.884 147.774C156.477 147.611 151.102 154.378 150.963 161.364C150.823 168.598 156.688 174.796 163.884 174.953C171.29 175.116 176.667 168.35 176.804 161.364C176.849 159.109 173.357 159.114 173.313 161.364Z" fill="#372121"/>
<path d="M194.312 139.432C191.643 139.432 188.794 139.112 186.148 139.526C181.866 140.195 182.648 146.253 182.664 149.361C182.704 157.025 182.662 164.69 182.62 172.353C182.609 174.607 186.098 174.606 186.112 172.353C186.149 165.437 186.177 158.52 186.164 151.604C186.159 149.926 186.154 148.246 186.131 146.568C186.115 145.334 185.977 143.139 187.075 142.896C186.581 143.005 187.196 142.927 187.357 142.927C188.128 142.927 188.898 142.927 189.669 142.927C191.216 142.927 192.763 142.927 194.311 142.927C196.563 142.927 196.563 139.432 194.312 139.432Z" fill="#372121"/>
<path d="M177.62 152.317C182.276 152.317 186.931 152.317 191.587 152.317C193.839 152.317 193.839 148.822 191.587 148.822C186.931 148.822 182.276 148.822 177.62 148.822C175.369 148.822 175.369 152.317 177.62 152.317Z" fill="#372121"/>
<path d="M93.996 181.795C93.4903 181.286 92.7834 181.059 92.0776 181.054C91.1155 181.046 90.1535 181.054 89.1914 181.054C89.1263 181.054 89.0779 181.077 89.042 181.112C89.0352 181.117 89.0296 181.12 89.0251 181.125C89.0206 181.129 89.0173 181.136 89.0139 181.14C88.9802 181.178 88.9543 181.227 88.9543 181.292C88.9543 184.077 88.9543 186.862 88.9543 189.647C88.9543 189.777 89.0633 189.885 89.1914 189.885C89.2555 189.885 89.3184 189.885 89.3825 189.885C89.5117 189.885 89.6208 189.777 89.6208 189.647C89.6208 188.669 89.6208 187.689 89.6208 186.709C90.0995 186.709 90.5772 186.709 91.0571 186.709C91.6202 186.709 92.2102 186.753 92.7654 186.635C94.1972 186.329 94.9761 184.851 94.7906 183.465C94.7075 182.839 94.4445 182.247 93.996 181.795ZM92.0776 186.055C91.2583 186.055 90.439 186.055 89.6208 186.055C89.6208 184.609 89.6208 183.165 89.6208 181.72C90.0995 181.72 90.5772 181.72 91.0571 181.72C91.5988 181.72 92.1922 181.661 92.7216 181.805C94.05 182.167 94.4906 183.826 93.9163 184.973C93.5611 185.684 92.8564 186.048 92.0776 186.055Z" fill="#372121"/>
<path d="M104.805 189.231C103.405 189.231 102.004 189.231 100.605 189.231C100.605 188.089 100.605 186.946 100.605 185.803C101.965 185.803 103.325 185.803 104.686 185.803C104.815 185.803 104.922 185.695 104.922 185.566C104.922 185.502 104.922 185.439 104.922 185.374C104.922 185.245 104.815 185.137 104.686 185.137C103.325 185.137 101.966 185.137 100.605 185.137C100.605 183.998 100.605 182.859 100.605 181.72C101.996 181.72 103.389 181.72 104.78 181.72C104.91 181.72 105.016 181.612 105.016 181.483C105.016 181.423 105.016 181.363 105.016 181.304C105.016 181.174 104.908 181.066 104.78 181.066C103.245 181.066 101.711 181.066 100.176 181.066C100.047 181.066 99.9398 181.174 99.9398 181.304C99.9398 183.674 99.9398 186.044 99.9398 188.414C99.9398 188.825 99.9398 189.236 99.9398 189.648C99.9398 189.777 100.048 189.885 100.176 189.885C101.719 189.885 103.261 189.885 104.804 189.885C104.933 189.885 105.041 189.777 105.041 189.648C105.041 189.588 105.041 189.528 105.041 189.469C105.042 189.338 104.934 189.231 104.805 189.231Z" fill="#372121"/>
<path d="M115.945 181.054C113.961 181.054 111.978 181.054 109.994 181.054C109.865 181.054 109.757 181.162 109.757 181.291C109.757 181.354 109.757 181.418 109.757 181.481C109.757 181.61 109.866 181.718 109.994 181.718C110.877 181.718 111.76 181.718 112.643 181.718C112.643 184.012 112.643 186.305 112.643 188.599C112.643 188.959 112.643 189.32 112.643 189.681C112.643 189.746 112.668 189.795 112.703 189.832C112.706 189.837 112.709 189.843 112.714 189.847C112.72 189.852 112.725 189.855 112.73 189.86C112.768 189.894 112.816 189.917 112.881 189.917C112.941 189.917 113.001 189.917 113.06 189.917C113.189 189.917 113.297 189.809 113.297 189.68C113.297 187.308 113.297 184.934 113.297 182.562C113.297 182.28 113.297 181.999 113.297 181.716C114.181 181.716 115.063 181.716 115.946 181.716C116.075 181.716 116.183 181.608 116.183 181.479C116.183 181.416 116.183 181.352 116.183 181.289C116.182 181.162 116.074 181.054 115.945 181.054Z" fill="#372121"/>
<path d="M125.581 185.531C124.939 185.225 124.2 185.184 123.504 185.114C122.872 185.051 122.168 184.998 121.638 184.611C121.397 184.435 121.264 184.154 121.196 183.87C121.061 183.287 121.223 182.718 121.639 182.292C122.45 181.464 123.971 181.42 124.942 181.954C125.392 182.202 125.671 182.608 125.782 183.104C125.784 183.116 125.785 183.129 125.788 183.141C125.807 183.3 125.924 183.403 126.088 183.371C126.147 183.358 126.207 183.347 126.266 183.335C126.36 183.315 126.452 183.203 126.439 183.105C126.218 181.324 124.22 180.722 122.686 181.046C121.839 181.224 121.004 181.742 120.664 182.566C120.339 183.354 120.46 184.418 121.094 185.024C121.586 185.495 122.298 185.626 122.948 185.712C123.623 185.801 124.318 185.811 124.974 186.009C125.647 186.213 126.004 186.699 126.012 187.405C126.027 188.457 125.03 189.072 124.114 189.257C123.454 189.39 122.743 189.287 122.142 188.989C121.845 188.842 121.572 188.636 121.375 188.367C121.186 188.11 121.119 187.826 121.075 187.518C121.062 187.423 120.94 187.331 120.846 187.343C120.783 187.351 120.718 187.359 120.655 187.367C120.488 187.387 120.402 187.502 120.426 187.667C120.573 188.695 121.267 189.375 122.217 189.736C123.168 190.097 124.247 190.017 125.164 189.595C126.07 189.18 126.715 188.324 126.681 187.306C126.661 186.541 126.279 185.864 125.581 185.531Z" fill="#372121"/>
<path d="M137.727 181.066C137.662 181.066 137.599 181.066 137.536 181.066C137.407 181.066 137.298 181.174 137.298 181.304C137.298 182.565 137.298 183.827 137.298 185.089C135.711 185.089 134.124 185.089 132.537 185.089C132.537 183.828 132.537 182.566 132.537 181.304C132.537 181.174 132.429 181.066 132.3 181.066C132.24 181.066 132.181 181.066 132.121 181.066C131.992 181.066 131.884 181.174 131.884 181.304C131.884 183.674 131.884 186.044 131.884 188.414C131.884 188.825 131.884 189.236 131.884 189.648C131.884 189.777 131.992 189.885 132.121 189.885C132.181 189.885 132.24 189.885 132.3 189.885C132.429 189.885 132.537 189.777 132.537 189.648C132.537 188.346 132.537 187.045 132.537 185.743C134.124 185.743 135.711 185.743 137.298 185.743C137.298 187.045 137.298 188.346 137.298 189.648C137.298 189.777 137.407 189.885 137.536 189.885C137.599 189.885 137.662 189.885 137.727 189.885C137.855 189.885 137.964 189.777 137.964 189.648C137.964 187.278 137.964 184.908 137.964 182.538C137.964 182.126 137.964 181.715 137.964 181.304C137.964 181.174 137.856 181.066 137.727 181.066Z" fill="#372121"/>
<path d="M150.528 182.066C148.782 180.49 146.026 180.604 144.383 182.269C143.512 183.168 143.03 184.37 143.063 185.625C143.098 186.865 143.684 188.042 144.593 188.87C145.516 189.711 146.786 190.101 148.021 189.978C149.242 189.855 150.369 189.21 151.113 188.237C152.558 186.352 152.287 183.652 150.528 182.066ZM150.275 182.749C151.172 183.678 151.559 184.98 151.308 186.25C151.063 187.489 150.197 188.512 149.057 189.029C147.875 189.563 146.481 189.382 145.421 188.671C144.364 187.963 143.739 186.731 143.728 185.469C143.712 183.931 144.682 182.537 146.063 181.91C147.486 181.263 149.188 181.663 150.275 182.749Z" fill="#372121"/>
<path d="M163.022 183.465C162.937 182.839 162.675 182.247 162.228 181.796C161.721 181.286 161.015 181.06 160.31 181.055C159.348 181.047 158.386 181.055 157.423 181.055C157.358 181.055 157.309 181.08 157.272 181.113C157.266 181.118 157.262 181.121 157.257 181.125C157.253 181.13 157.248 181.137 157.244 181.143C157.211 181.18 157.186 181.228 157.186 181.293C157.186 184.078 157.186 186.863 157.186 189.648C157.186 189.778 157.294 189.886 157.423 189.886C157.488 189.886 157.55 189.886 157.615 189.886C157.744 189.886 157.852 189.778 157.852 189.648C157.852 188.67 157.852 187.69 157.852 186.71C158.33 186.71 158.809 186.71 159.288 186.71C159.851 186.71 160.441 186.754 160.996 186.636C162.427 186.329 163.207 184.851 163.022 183.465ZM160.308 186.055C159.49 186.055 158.669 186.055 157.851 186.055C157.851 184.609 157.851 183.165 157.851 181.72C158.329 181.72 158.808 181.72 159.287 181.72C159.83 181.72 160.423 181.661 160.951 181.805C162.28 182.167 162.72 183.826 162.146 184.972C161.792 185.683 161.087 186.048 160.308 186.055Z" fill="#372121"/>
</svg>
