<svg width="252" height="252" viewBox="0 0 252 252" fill="none" xmlns="http://www.w3.org/2000/svg">
<path d="M124.838 49.8081C124.838 49.8081 9.34277 67.4095 9.34277 146.04C9.34277 146.04 15.4637 239.918 123.963 239.918C123.963 239.918 241.207 222.317 241.207 147.204C241.207 147.216 230.702 49.8081 124.838 49.8081Z" fill="white"/>
<path d="M126 252C93.1435 252 62.1196 241.422 38.6421 222.208C13.7272 201.816 0 174.049 0 144.026C0 114.003 13.7272 86.2363 38.6421 65.8449C62.1196 46.6301 93.1435 36.0522 126 36.0522C158.857 36.0522 189.88 46.6301 213.358 65.8449C238.273 86.2363 252 114.003 252 144.026C252 174.061 238.273 201.816 213.358 222.208C189.868 241.422 158.845 252 126 252ZM126 61.0897C96.5333 61.0897 68.9592 70.3696 48.3685 87.2189C29.2151 102.892 18.6742 123.065 18.6742 144.026C18.6742 164.988 29.2151 185.161 48.3685 200.834C68.9592 217.683 96.5333 226.963 126 226.963C155.467 226.963 183.041 217.683 203.632 200.834C222.785 185.161 233.326 164.988 233.326 144.026C233.326 123.065 222.785 102.892 203.632 87.2189C183.041 70.3696 155.467 61.0897 126 61.0897Z" fill="#D2D7D9"/>
<path opacity="0.2" d="M207.141 55.5945L206.722 55.0971L165.936 5.91988L165.972 6.04119L165.864 5.91988L162.977 6.64772L162.821 5.91988L126.299 15.7699L126.072 15.8305L125.832 15.7577L87.0464 4.59766L86.9146 5.38613L83.9919 4.59766L83.908 4.71893L83.932 4.59766L45.0024 55.5945L63.4371 91.1734L66.3837 78.7274L83.3211 97.0688H85.5371H125.365H126.072H126.766H166.606H168.81L186.682 77.7327L189.916 88.9656L207.141 55.5945Z" fill="#414042"/>
<path d="M83.9919 0L45.0024 50.9847L83.3211 92.4712H126.072V11.2208L83.9919 0Z" fill="#FAF0DD"/>
<path d="M165.864 1.32227L126.072 11.2208V92.4712H168.81L207.141 50.9847L165.864 1.32227Z" fill="#FAF0DD"/>
<path d="M83.932 0L63.4371 86.5757L45.0024 50.9847L83.932 0Z" fill="#D2D7D9"/>
<path d="M165.936 1.32227L189.916 84.368L207.141 50.9847L165.936 1.32227Z" fill="#D2D7D9"/>
<path d="M85.5371 92.4713L126.707 56.6982L166.606 92.4713H85.5371Z" fill="#F3E2D0"/>
<path d="M165.073 44.0944C169.589 57.4865 156.041 62.5692 147.273 62.5692C138.505 62.5692 131.402 53.9687 131.402 43.3544C131.402 32.7402 138.505 24.1396 147.273 24.1396C156.041 24.1396 158.581 24.8311 165.073 44.0944Z" fill="#D2D7D9"/>
<path d="M152.951 41.7412C152.951 44.7739 150.831 47.2364 148.219 47.2364C145.608 47.2364 143.5 44.7739 143.5 41.7412C143.5 38.7086 145.62 36.2461 148.219 36.2461C150.831 36.2461 152.951 38.7086 152.951 41.7412Z" fill="#573D26"/>
<path d="M113.255 41.7412C113.255 44.7739 111.134 47.2364 108.523 47.2364C105.912 47.2364 103.804 44.7739 103.804 41.7412C103.804 38.7086 105.924 36.2461 108.523 36.2461C111.134 36.2461 113.255 38.7086 113.255 41.7412Z" fill="#573D26"/>
<path d="M118.417 63.8916C118.417 63.8916 121.819 66.2692 127.102 66.2692C132.384 66.2692 134.696 63.8552 134.696 63.8552L126.706 56.686L118.417 63.8916Z" fill="#573D26"/>
<path d="M126.707 63.8911C126.707 63.8911 130.372 82.0141 112.968 82.8875" stroke="#573D26" stroke-width="0.7283" stroke-miterlimit="10"/>
<path d="M127.341 64.2437C127.341 64.2437 123.676 82.3667 141.08 83.2401" stroke="#573D26" stroke-width="0.7283" stroke-miterlimit="10"/>
<path d="M151.561 39.3879C151.561 40.1885 151.01 40.8314 150.316 40.8314C149.633 40.8314 149.07 40.1885 149.07 39.3879C149.07 38.5873 149.621 37.9443 150.316 37.9443C151.01 37.9443 151.561 38.5873 151.561 39.3879Z" fill="white"/>
<path d="M112.021 39.3879C112.021 40.1885 111.47 40.8314 110.776 40.8314C110.093 40.8314 109.53 40.1885 109.53 39.3879C109.53 38.5873 110.081 37.9443 110.776 37.9443C111.458 37.9443 112.021 38.5873 112.021 39.3879Z" fill="white"/>
<path d="M78.0649 146.386C76.8807 145.828 75.3127 145.55 73.3589 145.55C71.9339 145.55 69.2048 145.585 65.1715 145.654C65.0343 145.664 64.7771 145.674 64.4048 145.68C64.0305 145.686 63.7523 145.688 63.569 145.688C63.3838 145.688 63.1775 145.691 62.9481 145.696C62.7178 145.703 62.5268 145.709 62.3714 145.714C62.2159 145.72 62.0921 145.722 62 145.722V172.15H68.6021V164.381C68.6703 164.381 69.3266 164.456 70.5674 164.605C71.6134 164.707 72.4118 164.76 72.9636 164.76C73.1469 164.76 73.2783 164.754 73.3599 164.744C75.5085 164.744 77.206 164.404 78.4535 163.727C79.6991 163.049 80.651 161.964 81.3055 160.471C81.7085 159.667 81.9091 158.104 81.9091 155.784V154.544C81.9091 152.362 81.5531 150.53 80.841 149.048C80.1732 147.83 79.2481 146.943 78.0649 146.386ZM75.9105 156.42C75.9105 157.167 75.853 157.725 75.7378 158.092C75.6217 158.459 75.4096 158.804 75.0997 159.125C74.9039 159.367 74.6276 159.551 74.2715 159.677C73.9616 159.792 73.3753 159.849 72.5135 159.849H72.3763C71.5136 159.849 70.2556 159.75 68.6012 159.557V150.528C69.9686 150.426 71.0837 150.374 71.9454 150.374C72.4281 150.374 72.8273 150.385 73.143 150.408C73.4587 150.431 73.8272 150.512 74.2466 150.65C74.6659 150.787 75.0076 150.983 75.2714 151.235C75.6975 151.73 75.9105 152.666 75.9105 154.043V156.42Z" fill="#372121"/>
<path d="M92.3533 153.026C90.9513 153.026 89.6338 153.227 88.3987 153.629C85.6456 154.71 84.2695 156.908 84.2695 160.228V164.741C84.2695 165.958 84.4922 167.112 84.9374 168.203C86.136 170.994 88.7979 172.389 92.9224 172.389C94.5191 172.389 95.9384 172.32 97.1792 172.183C99.156 171.874 100.144 171.685 100.144 171.616V166.916H100.11C97.9718 167.348 95.8578 167.564 93.7668 167.564H93.3014C92.5884 167.564 91.8936 167.482 91.2162 167.315C90.4456 167.048 90.0608 166.3 90.0608 165.067V164.518H100.61V161.145C100.61 159.278 100.386 157.853 99.9381 156.868C98.7654 154.309 96.2369 153.026 92.3533 153.026ZM94.784 160.745H90.0617V159.896C90.0617 159.174 90.2479 158.643 90.6212 158.299C90.9945 157.954 91.5837 157.782 92.3878 157.782C92.9857 157.782 93.5029 157.921 93.9386 158.198C94.5019 158.431 94.7831 159.18 94.7831 160.444V160.745H94.784Z" fill="#372121"/>
<path d="M132.792 162.856C131.987 162.097 130.569 161.452 128.534 160.923C128.454 160.9 128.301 160.861 128.077 160.802C127.854 160.745 127.698 160.704 127.613 160.682C127.526 160.658 127.383 160.622 127.182 160.57C126.98 160.519 126.835 160.479 126.742 160.449C126.65 160.421 126.519 160.38 126.346 160.329C126.173 160.277 126.041 160.233 125.949 160.199C125.858 160.164 125.745 160.124 125.613 160.078C125.482 160.032 125.372 159.986 125.287 159.94C125.199 159.895 125.111 159.846 125.019 159.793C124.927 159.741 124.847 159.692 124.777 159.646C124.421 159.394 124.318 159.089 124.467 158.731C124.732 158.134 125.73 157.835 127.466 157.835C127.673 157.835 128.006 157.845 128.466 157.869C130.385 158.007 131.976 158.22 133.241 158.508L132.724 153.561C130.805 153.241 128.983 153.08 127.261 153.08C126.548 153.08 125.778 153.109 124.95 153.165C123.801 153.27 122.859 153.452 122.124 153.716C121.02 154.105 120.187 154.626 119.624 155.28C118.877 156.128 118.429 157.194 118.28 158.477C118.257 158.774 118.245 158.992 118.245 159.13C118.245 160.615 118.705 161.765 119.624 162.582C120.555 163.469 122.01 164.158 123.986 164.653C124.066 164.676 124.272 164.728 124.605 164.808C124.939 164.89 125.158 164.944 125.261 164.972C125.364 165.001 125.552 165.052 125.821 165.128C126.092 165.203 126.287 165.26 126.408 165.3C126.528 165.341 126.679 165.393 126.864 165.456C127.049 165.519 127.2 165.582 127.322 165.646C127.442 165.708 127.549 165.775 127.641 165.843C127.962 166.085 128.067 166.379 127.951 166.724C127.767 167.127 127.25 167.386 126.4 167.501C125.94 167.547 125.47 167.57 124.987 167.57C124.447 167.57 123.895 167.541 123.332 167.483C121.391 167.266 119.752 167.012 118.42 166.724L118.954 171.756C121.148 172.181 123.551 172.394 126.159 172.394C126.538 172.383 126.969 172.354 127.452 172.308C128.486 172.239 129.422 172.056 130.262 171.756C131.296 171.413 132.123 170.889 132.744 170.188C133.48 169.35 133.922 168.299 134.071 167.035C134.095 166.689 134.106 166.443 134.106 166.293C134.106 165.604 134.025 164.997 133.864 164.473C133.699 163.946 133.344 163.408 132.792 162.856Z" fill="#372121"/>
<path d="M152.233 155.768C151.418 154.009 149.332 153.13 145.977 153.13C144.89 153.13 143.801 153.283 142.707 153.582C142.707 153.582 142.73 142.207 142.532 141.796L136.031 144.445V156.261V172.219H141.857V158.849C142.811 158.31 143.702 158.04 144.528 158.04H144.925L145.442 158.074C146.51 158.282 147.045 158.988 147.045 160.194V172.219H152.906V161.21C152.906 158.229 152.681 156.415 152.233 155.768Z" fill="#372121"/>
<path d="M163.256 153.061H162.705C161.66 153.061 160.53 153.239 159.313 153.594C156.145 154.617 154.56 156.966 154.56 160.641V164.776C154.56 166.315 154.83 167.596 155.368 168.617C156.559 171.132 159.068 172.391 162.894 172.391C164.643 172.391 166.173 172.12 167.483 171.58C170.083 170.444 171.383 168.072 171.383 164.465V161.003C171.383 159.659 171.228 158.516 170.918 157.574C169.771 154.566 167.217 153.061 163.256 153.061ZM165.592 164.614C165.592 164.889 165.586 165.113 165.575 165.284C165.563 165.456 165.557 165.628 165.557 165.798C165.246 166.977 164.404 167.566 163.033 167.566H162.894C161.2 167.566 160.352 166.755 160.352 165.129V160.424C160.352 159.956 160.41 159.555 160.525 159.224C160.952 158.387 161.684 157.97 162.722 157.97H163.171C163.678 157.97 164.058 158.039 164.312 158.176C165.166 158.417 165.592 159.287 165.592 160.786V164.614Z" fill="#372121"/>
<path d="M189.293 156.627C188.523 154.996 187.403 153.939 185.931 153.457C185.138 153.204 184.305 153.077 183.432 153.077C181.789 153.077 180.049 153.563 178.21 154.536C178.152 154.149 178.089 153.863 178.02 153.676C178.008 153.641 177.975 153.505 177.916 153.271H173.124V180.66L178.95 179.592V171.546C179.317 171.684 179.703 171.805 180.105 171.909C181.117 172.138 182.117 172.253 183.104 172.253C186.494 172.253 188.557 171.376 189.293 169.618C189.764 168.802 190 166.976 190 164.139V162.312C190 159.797 189.764 157.903 189.293 156.627ZM184.138 165.231C184.138 166.378 183.593 167.071 182.502 167.309L182.019 167.342H181.657C180.808 167.342 179.905 167.076 178.951 166.543V158.945C179.249 158.832 179.767 158.679 180.502 158.486C180.766 158.451 180.978 158.417 181.14 158.383C181.405 158.35 181.64 158.332 181.846 158.332C182.984 158.332 183.697 158.804 183.984 159.746C184.088 160.017 184.138 160.404 184.138 160.903V165.231Z" fill="#372121"/>
<path d="M113.055 167.429C112.79 167.337 112.583 167.228 112.435 167.102C112.341 167.032 112.261 166.953 112.189 166.869H106.103C106.149 167.304 106.219 167.704 106.315 168.067C106.499 168.826 106.714 169.428 106.961 169.877C107.208 170.325 107.555 170.698 108.004 170.996C108.52 171.342 108.963 171.591 109.331 171.746C109.698 171.901 110.198 172.013 110.831 172.081C111.623 172.173 112.726 172.219 114.139 172.219H114.708H116.088V167.981C116.054 167.981 115.841 167.97 115.45 167.946C114.417 167.855 113.618 167.682 113.055 167.429Z" fill="#372121"/>
<path d="M111.762 152.208L106.006 148.65V153.336H103.179V158.178H106.006V161.778V162.863C106.006 163.449 106.017 164.075 106.041 164.742V164.852H111.763C111.763 164.849 111.763 164.847 111.763 164.845V158.178H115.607L116.192 153.336H111.763V152.208H111.762Z" fill="#372121"/>
<path d="M105.733 153.353H111.762C112.151 147.183 107.566 145.744 104.517 142.238C101.219 138.445 105.613 133.405 105.613 133.405C102.079 135.282 101.643 137.545 101.643 137.545C101.85 135.488 105.357 132.847 107.424 129.795C109.492 126.744 108.846 120.604 103.19 120.711C97.5337 120.818 94.13 124.815 94.13 124.815C94.5704 122.862 96.3486 120.66 96.3486 120.66C87.4309 126.027 89.7148 135.675 89.7148 135.675C87.784 134.102 87.2035 128.827 87.2035 128.827C87.2035 128.827 85.5117 131.849 87.4683 136.279C89.4259 140.708 93.5561 143.75 93.5561 143.75C91.5774 143.746 88.6218 141.332 88.6218 141.332C90.5679 145.533 92.6071 146.737 99.5902 148.747C101.685 149.35 103.225 150.139 104.359 150.951C104.706 151.22 105.526 151.888 105.733 153.353Z" fill="#372121"/>
</svg>
