<svg width="252" height="252" viewBox="0 0 252 252" fill="none" xmlns="http://www.w3.org/2000/svg">
<path d="M124.838 49.8081C124.838 49.8081 9.34277 67.4095 9.34277 146.04C9.34277 146.04 15.4637 239.918 123.963 239.918C123.963 239.918 241.207 222.317 241.207 147.204C241.207 147.216 230.702 49.8081 124.838 49.8081Z" fill="white"/>
<path d="M126 252C93.1435 252 62.1196 241.422 38.6421 222.208C13.7272 201.816 0 174.049 0 144.026C0 114.003 13.7272 86.2363 38.6421 65.8449C62.1196 46.6301 93.1435 36.0522 126 36.0522C158.857 36.0522 189.88 46.6301 213.358 65.8449C238.273 86.2363 252 114.003 252 144.026C252 174.061 238.273 201.816 213.358 222.208C189.868 241.422 158.845 252 126 252ZM126 61.0897C96.5333 61.0897 68.9592 70.3696 48.3685 87.2189C29.2151 102.892 18.6742 123.065 18.6742 144.026C18.6742 164.988 29.2151 185.161 48.3685 200.834C68.9592 217.683 96.5333 226.963 126 226.963C155.467 226.963 183.041 217.683 203.632 200.834C222.785 185.161 233.326 164.988 233.326 144.026C233.326 123.065 222.785 102.892 203.632 87.2189C183.041 70.3696 155.467 61.0897 126 61.0897Z" fill="#F8CCFB"/>
<path opacity="0.2" d="M207.141 55.5945L206.722 55.0971L165.936 5.91988L165.972 6.04119L165.864 5.91988L162.977 6.64772L162.821 5.91988L126.299 15.7699L126.072 15.8305L125.832 15.7577L87.0464 4.59766L86.9146 5.38613L83.9919 4.59766L83.908 4.71893L83.932 4.59766L45.0024 55.5945L63.4371 91.1734L66.3837 78.7274L83.3211 97.0688H85.5371H125.365H126.072H126.766H166.606H168.81L186.682 77.7327L189.916 88.9656L207.141 55.5945Z" fill="#414042"/>
<path d="M83.9919 0L45.0024 50.9847L83.3211 92.4712H126.072V11.2208L83.9919 0Z" fill="#FAF0DD"/>
<path d="M165.864 1.32227L126.072 11.2208V92.4712H168.81L207.141 50.9847L165.864 1.32227Z" fill="#FAF0DD"/>
<path d="M83.932 0L63.4371 86.5757L45.0024 50.9847L83.932 0Z" fill="#F8CCFB"/>
<path d="M165.936 1.32227L189.916 84.368L207.141 50.9847L165.936 1.32227Z" fill="#F8CCFB"/>
<path d="M85.5371 92.4713L126.707 56.6982L166.606 92.4713H85.5371Z" fill="#F3E2D0"/>
<path d="M165.073 44.0944C169.589 57.4865 156.041 62.5692 147.273 62.5692C138.505 62.5692 131.402 53.9687 131.402 43.3544C131.402 32.7402 138.505 24.1396 147.273 24.1396C156.041 24.1396 158.581 24.8311 165.073 44.0944Z" fill="#F8CCFB"/>
<path d="M152.951 41.7412C152.951 44.7739 150.831 47.2364 148.219 47.2364C145.608 47.2364 143.5 44.7739 143.5 41.7412C143.5 38.7086 145.62 36.2461 148.219 36.2461C150.831 36.2461 152.951 38.7086 152.951 41.7412Z" fill="#573D26"/>
<path d="M113.255 41.7412C113.255 44.7739 111.134 47.2364 108.523 47.2364C105.912 47.2364 103.804 44.7739 103.804 41.7412C103.804 38.7086 105.924 36.2461 108.523 36.2461C111.134 36.2461 113.255 38.7086 113.255 41.7412Z" fill="#573D26"/>
<path d="M118.417 63.8916C118.417 63.8916 121.819 66.2692 127.102 66.2692C132.384 66.2692 134.696 63.8552 134.696 63.8552L126.706 56.686L118.417 63.8916Z" fill="#573D26"/>
<path d="M126.707 63.8911C126.707 63.8911 130.372 82.0141 112.968 82.8875" stroke="#573D26" stroke-width="0.7283" stroke-miterlimit="10"/>
<path d="M127.341 64.2437C127.341 64.2437 123.676 82.3667 141.08 83.2401" stroke="#573D26" stroke-width="0.7283" stroke-miterlimit="10"/>
<path d="M151.561 39.3879C151.561 40.1885 151.01 40.8314 150.316 40.8314C149.633 40.8314 149.07 40.1885 149.07 39.3879C149.07 38.5873 149.621 37.9443 150.316 37.9443C151.01 37.9443 151.561 38.5873 151.561 39.3879Z" fill="white"/>
<path d="M112.021 39.3879C112.021 40.1885 111.47 40.8314 110.776 40.8314C110.093 40.8314 109.53 40.1885 109.53 39.3879C109.53 38.5873 110.081 37.9443 110.776 37.9443C111.458 37.9443 112.021 38.5873 112.021 39.3879Z" fill="white"/>
<path d="M68.909 133.441H79.1177C79.1177 133.441 87.9524 133.029 87.9524 141.676H100.026V148.059C100.026 148.059 100.516 157.015 92.8596 157.53C85.203 158.045 75.2895 158.868 70.381 164.839C65.4726 170.81 60.0743 188 60.0743 188V139.823C60.0743 139.823 53.6938 128.501 63.3135 118C63.3135 118 71.8543 122.22 68.909 133.441Z" fill="#372121"/>
<path d="M187.781 160.171C185.037 160.171 182.678 158.326 181.779 156.034L185.252 153.695C185.767 154.414 186.324 155.359 187.653 155.359C188.596 155.359 189.497 154.505 189.497 153.426C189.497 151.988 188.04 150.818 186.109 149.694C184.309 148.66 181.908 147.176 181.908 143.578C181.908 139.8 184.522 136.968 188.124 136.968C190.612 136.968 192.67 138.811 193.613 140.878L190.225 143.262C189.753 142.498 189.282 141.778 188.124 141.778C187.182 141.778 186.409 142.498 186.409 143.532C186.409 145.06 188.468 145.824 190.44 147.219C192.242 148.523 194 150.322 194 153.694C193.999 157.428 191.256 160.171 187.781 160.171Z" fill="#372121"/>
<path d="M119.742 136.97C117.17 136.97 114.982 137.87 113.225 139.218V137.33H112.174C110.819 137.478 108.638 138.279 108.638 141.929V164.852C108.638 164.852 108.776 169.032 113.396 169.032V157.971C115.113 159.319 117.299 160.174 119.742 160.174C125.831 160.174 130.805 154.957 130.805 148.573C130.805 142.186 125.831 136.97 119.742 136.97ZM119.742 155.225C116.184 155.225 113.396 152.302 113.396 148.569C113.396 144.838 116.184 141.914 119.742 141.914C123.301 141.914 126.089 144.837 126.089 148.569C126.089 152.303 123.301 155.225 119.742 155.225Z" fill="#372121"/>
<path d="M153.098 162.057V137.374H148.338V150.504C148.338 153.785 146.107 155.181 143.621 155.181C141.091 155.181 138.905 152.932 138.905 150.234V137.373H134.19V150.547C134.19 156.302 138.133 160.17 143.665 160.17C145.595 160.17 147.397 159.54 148.596 158.55C148.595 158.553 148.632 162.057 153.098 162.057Z" fill="#372121"/>
<path d="M167.674 136.969C165.102 136.969 162.915 137.869 161.157 139.218V137.329C161.157 137.329 156.568 137.275 156.568 141.438V165.78C156.568 165.78 156.696 169.03 161.328 169.03V157.969C163.043 159.318 165.231 160.172 167.674 160.172C173.763 160.172 178.736 154.956 178.736 148.571C178.737 142.186 173.763 136.969 167.674 136.969ZM167.674 155.225C164.116 155.225 161.328 152.301 161.328 148.569C161.328 144.837 164.116 141.914 167.674 141.914C171.233 141.914 174.021 144.836 174.021 148.569C174.021 152.303 171.234 155.225 167.674 155.225Z" fill="#372121"/>
</svg>
