<svg width="252" height="252" viewBox="0 0 252 252" fill="none" xmlns="http://www.w3.org/2000/svg">
<path d="M124.838 49.8081C124.838 49.8081 9.34277 67.4095 9.34277 146.04C9.34277 146.04 15.4637 239.918 123.963 239.918C123.963 239.918 241.207 222.317 241.207 147.204C241.207 147.216 230.702 49.8081 124.838 49.8081Z" fill="white"/>
<path d="M126 252C93.1435 252 62.1196 241.422 38.6421 222.208C13.7272 201.816 0 174.049 0 144.026C0 114.003 13.7272 86.2363 38.6421 65.8449C62.1196 46.6301 93.1435 36.0522 126 36.0522C158.857 36.0522 189.88 46.6301 213.358 65.8449C238.273 86.2363 252 114.003 252 144.026C252 174.061 238.273 201.816 213.358 222.208C189.868 241.422 158.845 252 126 252ZM126 61.0897C96.5333 61.0897 68.9592 70.3696 48.3685 87.2189C29.2151 102.892 18.6742 123.065 18.6742 144.026C18.6742 164.988 29.2151 185.161 48.3685 200.834C68.9592 217.683 96.5333 226.963 126 226.963C155.467 226.963 183.041 217.683 203.632 200.834C222.785 185.161 233.326 164.988 233.326 144.026C233.326 123.065 222.785 102.892 203.632 87.2189C183.041 70.3696 155.467 61.0897 126 61.0897Z" fill="#DAEFC6"/>
<path opacity="0.2" d="M207.141 55.5945L206.722 55.0971L165.936 5.91988L165.972 6.04119L165.864 5.91988L162.977 6.64772L162.821 5.91988L126.299 15.7699L126.072 15.8305L125.832 15.7577L87.0464 4.59766L86.9146 5.38613L83.9919 4.59766L83.908 4.71893L83.932 4.59766L45.0024 55.5945L63.4371 91.1734L66.3837 78.7274L83.3211 97.0688H85.5371H125.365H126.072H126.766H166.606H168.81L186.682 77.7327L189.916 88.9656L207.141 55.5945Z" fill="#414042"/>
<path d="M83.9919 0L45.0024 50.9847L83.3211 92.4712H126.072V11.2208L83.9919 0Z" fill="#FAF0DD"/>
<path d="M165.864 1.32227L126.072 11.2208V92.4712H168.81L207.141 50.9847L165.864 1.32227Z" fill="#FAF0DD"/>
<path d="M83.932 0L63.4371 86.5757L45.0024 50.9847L83.932 0Z" fill="#DAEFC6"/>
<path d="M165.936 1.32227L189.916 84.368L207.141 50.9847L165.936 1.32227Z" fill="#DAEFC6"/>
<path d="M85.5371 92.4713L126.707 56.6982L166.606 92.4713H85.5371Z" fill="#F3E2D0"/>
<path d="M165.073 44.0944C169.589 57.4865 156.041 62.5692 147.273 62.5692C138.505 62.5692 131.402 53.9687 131.402 43.3544C131.402 32.7402 138.505 24.1396 147.273 24.1396C156.041 24.1396 158.581 24.8311 165.073 44.0944Z" fill="#DAEFC6"/>
<path d="M152.951 41.7412C152.951 44.7739 150.831 47.2364 148.219 47.2364C145.608 47.2364 143.5 44.7739 143.5 41.7412C143.5 38.7086 145.62 36.2461 148.219 36.2461C150.831 36.2461 152.951 38.7086 152.951 41.7412Z" fill="#573D26"/>
<path d="M113.255 41.7412C113.255 44.7739 111.134 47.2364 108.523 47.2364C105.912 47.2364 103.804 44.7739 103.804 41.7412C103.804 38.7086 105.924 36.2461 108.523 36.2461C111.134 36.2461 113.255 38.7086 113.255 41.7412Z" fill="#573D26"/>
<path d="M118.417 63.8916C118.417 63.8916 121.819 66.2692 127.102 66.2692C132.384 66.2692 134.696 63.8552 134.696 63.8552L126.706 56.686L118.417 63.8916Z" fill="#573D26"/>
<path d="M126.707 63.8911C126.707 63.8911 130.372 82.0141 112.968 82.8875" stroke="#573D26" stroke-width="0.7283" stroke-miterlimit="10"/>
<path d="M127.341 64.2437C127.341 64.2437 123.676 82.3667 141.08 83.2401" stroke="#573D26" stroke-width="0.7283" stroke-miterlimit="10"/>
<path d="M151.561 39.3879C151.561 40.1885 151.01 40.8314 150.316 40.8314C149.633 40.8314 149.07 40.1885 149.07 39.3879C149.07 38.5873 149.621 37.9443 150.316 37.9443C151.01 37.9443 151.561 38.5873 151.561 39.3879Z" fill="white"/>
<path d="M112.021 39.3879C112.021 40.1885 111.47 40.8314 110.776 40.8314C110.093 40.8314 109.53 40.1885 109.53 39.3879C109.53 38.5873 110.081 37.9443 110.776 37.9443C111.458 37.9443 112.021 38.5873 112.021 39.3879Z" fill="white"/>
<path d="M124.026 120C112.464 120 103.094 129.351 103.094 140.885C103.094 152.419 112.465 161.77 124.026 161.77C135.587 161.77 144.957 152.419 144.957 140.885C144.957 129.351 135.587 120 124.026 120ZM124.026 150.802C118.537 150.802 114.088 146.363 114.088 140.886C114.088 135.41 118.538 130.97 124.026 130.97C129.513 130.97 133.964 135.41 133.964 140.886C133.964 146.362 129.513 150.802 124.026 150.802Z" fill="#372121"/>
<path d="M63.6855 167.893H66.5302C68.3602 167.893 69.647 169.29 69.647 171.101C69.647 172.913 68.3612 174.383 66.5302 174.383H65.4439C65.3865 174.383 65.3583 174.411 65.3583 174.469V178.591H63.6855V167.893ZM65.3572 172.643C65.3572 172.7 65.3854 172.728 65.457 172.728H66.3437C67.6588 172.728 67.9731 171.729 67.9731 171.101C67.9731 170.474 67.6588 169.547 66.3437 169.547H65.457C65.3865 169.547 65.3572 169.589 65.3572 169.662V172.643Z" fill="#372121"/>
<path d="M77.1841 176.85C77.1841 176.907 77.2122 176.936 77.2708 176.936H81.102V178.59H75.5254V167.893H81.102V169.56H77.2708C77.2133 169.56 77.1841 169.574 77.1841 169.632V172.314C77.1841 172.371 77.2122 172.386 77.2708 172.386H81.102V174.055H77.2708C77.2133 174.055 77.1841 174.085 77.1841 174.127V176.85Z" fill="#372121"/>
<path d="M89.47 169.645C89.47 169.603 89.4266 169.56 89.3844 169.56H86.9105V167.893H93.7305V169.56H91.2425C91.2273 169.56 91.2273 169.574 91.2143 169.574L91.1569 169.603C91.1428 169.618 91.1428 169.645 91.1428 169.674V178.589H89.47V169.645Z" fill="#372121"/>
<path d="M100.94 176.165C101.211 176.679 101.654 177.064 102.398 177.064C103.142 177.064 103.799 176.392 103.799 175.651C103.799 174.609 102.912 174.21 102.125 173.882C100.639 173.254 99.4808 172.598 99.4808 170.843C99.4808 169.074 100.781 167.791 102.511 167.791C103.569 167.791 104.655 168.389 105.098 169.402L103.597 170.129C103.367 169.659 102.868 169.46 102.453 169.46C101.753 169.46 101.153 170.087 101.153 170.757C101.153 171.599 101.725 171.87 102.411 172.212C104.54 173.139 105.441 173.81 105.441 175.651C105.441 177.348 104.069 178.703 102.424 178.703H102.367C100.879 178.703 99.779 177.746 99.4928 176.621C99.9817 176.479 100.453 176.321 100.94 176.165Z" fill="#372121"/>
<path d="M117.042 167.893H118.7V178.59H117.042V174.155C117.042 174.097 117.013 174.068 116.956 174.068H113.054C112.982 174.068 112.968 174.111 112.968 174.155V178.59H111.309V167.893H112.968V172.314C112.968 172.371 112.995 172.399 113.054 172.399H116.956C117.013 172.399 117.042 172.371 117.042 172.314V167.893Z" fill="#372121"/>
<path d="M130.056 167.777C133.086 167.777 135.531 170.216 135.531 173.24C135.531 176.265 133.086 178.703 130.056 178.703C127.024 178.703 124.58 176.265 124.58 173.24C124.58 170.216 127.025 167.777 130.056 167.777ZM130.056 177.049C132.158 177.049 133.859 175.338 133.859 173.24C133.859 171.144 132.158 169.446 130.056 169.446C127.953 169.446 126.237 171.144 126.237 173.24C126.237 175.338 127.955 177.049 130.056 177.049Z" fill="#372121"/>
<path d="M141.398 167.893H144.243C146.073 167.893 147.359 169.29 147.359 171.101C147.359 172.913 146.073 174.383 144.243 174.383H143.156C143.099 174.383 143.071 174.411 143.071 174.469V178.591H141.397V167.893H141.398ZM143.072 172.643C143.072 172.7 143.1 172.728 143.172 172.728H144.058C145.373 172.728 145.688 171.729 145.688 171.101C145.688 170.474 145.373 169.547 144.058 169.547H143.172C143.1 169.547 143.072 169.589 143.072 169.662V172.643Z" fill="#372121"/>
<path d="M82.0996 121.55H66.107C65.9151 121.551 63 121.615 63 124.834V134.44C63 134.44 65.6083 131.094 71.7573 131.094C71.7573 131.094 71.4787 132.953 68.1234 135.091C64.7703 137.23 62.4872 140.577 65.3753 143.969C68.2644 147.363 74.087 144.914 74.8784 140.886C75.6698 136.858 76.0438 130.814 80.3759 130.349C84.709 129.885 85.5936 132.581 86.8045 135.416C88.0166 138.251 90.5317 138.949 92.7682 138.763C92.7682 138.763 93.514 145.735 87.4106 146.292C81.589 146.824 66.3358 146.283 64.5145 160.221H82.1007C92.8039 160.221 101.48 151.564 101.48 140.885C101.48 130.205 92.8028 121.55 82.0996 121.55Z" fill="#372121"/>
<path d="M184.744 120.655H178.418V122.783C175.464 121.147 171.937 120 167.672 120C156.103 120 146.505 129.577 146.505 141.119C146.505 152.66 156.103 162.238 167.672 162.238C171.527 162.238 174.891 161.255 177.844 159.618V159.7C177.926 159.782 177.926 159.863 177.926 159.863C177.269 165.512 172.429 170.013 166.604 170.013C166.41 170.013 166.218 170.006 166.027 169.995C166.026 169.995 166.026 169.995 166.025 169.995C165.802 169.981 165.579 169.959 165.359 169.931C159.784 169.553 158.728 174.312 158.564 176.915V178.547C160.998 179.48 163.617 180 166.275 180C178.992 180 189 169.686 189 157.245V124.834C189.001 120.693 184.744 120.655 184.744 120.655ZM167.672 151.269C162.01 151.269 157.58 146.85 157.58 141.119C157.58 135.389 162.009 130.968 167.672 130.968C173.332 130.968 177.761 135.389 177.761 141.119C177.761 146.85 173.332 151.269 167.672 151.269Z" fill="#372121"/>
</svg>
